<svg width="406" height="306" viewBox="0 0 406 306" fill="none" xmlns="http://www.w3.org/2000/svg">
<path d="M251.913 263.138C251.965 263.236 252.009 263.337 252.045 263.442C253.313 266.538 253.324 270.405 253.06 273.684C252.39 281.631 250.421 289.183 241.641 291.081C237.995 291.956 234.173 291.741 230.648 290.461C228.901 289.809 227.32 288.776 226.02 287.439C224.719 286.101 223.731 284.492 223.127 282.727C222.668 280.982 222.446 279.183 222.468 277.378C222.339 272.939 222.339 268.504 222.468 264.071C222.434 262.773 222.64 261.479 223.077 260.255C223.579 259.242 224.313 258.363 225.22 257.687C226.126 257.012 227.18 256.56 228.294 256.368C230.528 256 232.813 256.066 235.023 256.56C238.832 257.225 242.582 258.189 246.239 259.443C248.553 260.235 250.847 260.925 251.913 263.138Z" fill="#231F20"/>
<path d="M236.921 292.055C238.536 292.05 240.145 291.873 241.722 291.527C250.979 289.497 252.887 281.377 253.547 273.684C253.922 269.258 253.547 265.838 252.532 263.209C252.532 263.097 252.44 262.985 252.39 262.874C251.283 260.59 248.989 259.829 246.767 259.047L246.432 258.925C242.751 257.665 238.977 256.694 235.145 256.023C232.87 255.522 230.522 255.457 228.223 255.83C227.025 256.033 225.894 256.52 224.923 257.249C223.952 257.978 223.169 258.929 222.64 260.022C222.183 261.301 221.963 262.652 221.99 264.011C221.838 268.446 221.828 272.932 221.99 277.358C221.972 279.207 222.201 281.05 222.671 282.839C223.295 284.677 224.322 286.354 225.675 287.746C227.029 289.138 228.676 290.212 230.496 290.888C232.546 291.676 234.725 292.072 236.921 292.055ZM251.456 263.31L251.578 263.594C252.593 266.061 252.897 269.339 252.542 273.602C251.882 281.306 250.096 288.695 241.509 290.543C237.966 291.402 234.248 291.197 230.821 289.954C229.141 289.333 227.62 288.346 226.368 287.064C225.116 285.783 224.165 284.239 223.584 282.544C223.139 280.842 222.927 279.087 222.955 277.327C222.823 272.922 222.833 268.456 222.955 264.051C222.912 262.815 223.105 261.582 223.523 260.417C223.995 259.478 224.68 258.662 225.525 258.037C226.369 257.411 227.349 256.992 228.385 256.814C230.558 256.476 232.774 256.545 234.922 257.017C238.712 257.68 242.445 258.637 246.087 259.88L246.422 260.001C248.533 260.722 250.532 261.402 251.497 263.31H251.456Z" fill="#231F20"/>
<path d="M139.003 52.9035L199.73 38.6268C204.826 37.4285 209.929 40.5889 211.128 45.6856L233.01 138.761C234.208 143.858 231.048 148.961 225.951 150.159L165.225 164.436C160.128 165.634 155.025 162.474 153.826 157.377L131.944 64.3016C130.746 59.2049 133.907 54.1018 139.003 52.9035Z" fill="#442EBA"/>
<path d="M250.573 76.743C250.573 76.743 255.912 100.169 252.288 109.132C248.665 118.094 218.002 105.508 218.002 105.508C218.002 105.508 239.144 152.756 249.05 178.669C258.957 204.582 249.05 251.069 249.05 251.069C249.05 251.069 257.82 274.313 251.72 280.403C245.62 286.493 226.67 289.172 224 279.266C221.331 269.36 221.047 249.831 221.047 249.831C221.047 249.831 223.909 214.874 214.378 198.066C204.847 181.258 195.276 164.571 195.276 164.571L190.566 177.614C190.566 177.614 211.333 263.259 204.847 266.304C198.361 269.349 151.884 251.079 156.838 237.346C161.791 223.614 173.565 232.018 173.565 232.018C173.565 232.018 143.49 198.096 144.241 181.339C144.993 164.581 160.228 140.566 160.228 140.566L153.366 116.561C153.366 116.561 114.126 159.191 98.1199 137.136L105.357 111.223C105.357 111.223 112.979 119.606 122.125 110.076C131.27 100.545 130.935 79.2196 164.43 70.45C197.925 61.6804 250.573 76.743 250.573 76.743Z" fill="white"/>
<path d="M235.764 286.351C241.854 286.351 248.675 284.168 252.075 280.768C258.165 274.678 250.37 253.15 249.578 251.029C250.177 248.126 259.099 203.517 249.578 178.487C240.626 155.091 222.295 113.801 219.017 106.422C223.899 108.33 242.494 115.171 249.964 112.024C250.579 111.785 251.141 111.426 251.617 110.967C252.093 110.509 252.473 109.961 252.735 109.355C256.369 100.362 251.263 77.6261 251.04 76.672C251.021 76.5828 250.978 76.5007 250.915 76.4344C250.852 76.3682 250.773 76.3205 250.685 76.2964C250.157 76.1442 197.58 61.3049 164.308 70.0034C139.877 76.3878 133.31 89.2884 128.032 99.7328C126.002 103.722 124.266 107.173 121.77 109.771C118.928 112.725 115.974 114.197 112.969 114.166C110.241 114.024 107.665 112.87 105.743 110.928C105.685 110.858 105.608 110.807 105.522 110.78C105.435 110.753 105.343 110.751 105.255 110.776C105.166 110.795 105.084 110.838 105.018 110.901C104.952 110.964 104.904 111.043 104.88 111.131L97.643 137.034C97.6226 137.108 97.6193 137.186 97.6333 137.262C97.6474 137.337 97.6785 137.409 97.7242 137.47C99.0217 139.386 100.747 140.973 102.765 142.106C104.782 143.238 107.035 143.886 109.346 143.997C117.05 144.444 126.885 140.028 138.547 130.802C143.703 126.714 148.579 122.285 153.143 117.546L159.69 140.485C158.249 142.809 144.465 165.403 143.744 181.308C143.095 195.843 164.745 222.456 171.352 230.211C168.833 228.969 165.951 228.674 163.232 229.379C160.187 230.333 157.843 232.962 156.32 237.174C155.051 240.706 156.797 244.685 161.527 248.989C173.413 259.819 200.097 269.106 205.03 266.761C206.228 266.203 209.435 264.731 200.594 220.721C196.443 200.106 191.52 179.583 191.053 177.644L195.337 165.769C197.489 169.534 205.71 183.947 213.901 198.35C223.239 214.793 220.529 249.425 220.499 249.78C220.468 250.135 220.813 269.542 223.473 279.398C224.315 282.524 226.771 284.717 230.578 285.732C232.272 286.165 234.016 286.373 235.764 286.351V286.351ZM218.002 105.001C217.933 104.999 217.866 105.012 217.803 105.038C217.74 105.064 217.683 105.103 217.636 105.153C217.567 105.226 217.52 105.318 217.502 105.417C217.484 105.516 217.496 105.618 217.535 105.711C217.748 106.188 238.789 153.244 248.584 178.852C258.378 204.46 248.655 250.501 248.584 250.917C248.553 251.009 248.553 251.109 248.584 251.201C248.665 251.435 257.16 274.211 251.365 280.007C247.234 284.138 237.266 286.422 230.862 284.717C228.476 284.077 225.431 282.585 224.488 279.093C221.869 269.36 221.554 249.963 221.554 249.77C221.995 243.25 222.073 236.71 221.788 230.181C221.351 220.244 219.758 206.562 214.815 197.812C205.294 181.044 195.722 164.317 195.722 164.317C195.673 164.233 195.601 164.165 195.515 164.12C195.429 164.076 195.332 164.056 195.235 164.063C195.139 164.075 195.048 164.112 194.971 164.171C194.894 164.23 194.835 164.308 194.799 164.398L190.089 177.441C190.064 177.538 190.064 177.639 190.089 177.736C198.087 210.693 209.1 263.757 204.654 265.848C200.473 267.817 174.347 259.24 162.268 248.248C157.873 244.188 156.178 240.635 157.335 237.519C158.746 233.621 160.847 231.206 163.588 230.343C168.236 228.881 173.281 232.373 173.332 232.424C173.43 232.513 173.559 232.559 173.692 232.552C173.824 232.545 173.948 232.486 174.037 232.388C174.126 232.29 174.172 232.16 174.165 232.028C174.159 231.896 174.1 231.772 174.001 231.683C173.707 231.338 144.079 197.731 144.81 181.359C145.541 164.987 160.543 141.074 160.695 140.82C160.735 140.761 160.761 140.694 160.771 140.624C160.782 140.554 160.776 140.482 160.756 140.414L153.894 116.46C153.869 116.374 153.822 116.297 153.758 116.234C153.694 116.172 153.615 116.127 153.529 116.105C153.441 116.085 153.35 116.088 153.265 116.115C153.179 116.142 153.102 116.191 153.042 116.257C152.788 116.531 127.271 144.027 109.397 142.992C107.275 142.891 105.205 142.306 103.345 141.28C101.485 140.254 99.8852 138.815 98.6681 137.075L105.621 112.207C107.638 114.023 110.227 115.075 112.939 115.181H113.081C116.329 115.181 119.486 113.598 122.49 110.471C125.089 107.772 126.956 104.087 128.925 100.19C134.112 89.9685 140.557 77.2505 164.552 70.9778C196.291 62.6853 245.863 76.0528 250.106 77.1795C250.705 79.9098 255.09 100.809 251.781 108.979C251.566 109.479 251.251 109.929 250.855 110.301C250.458 110.673 249.989 110.959 249.477 111.141C241.418 114.542 218.377 105.173 218.154 105.051C218.106 105.026 218.055 105.009 218.002 105.001Z" fill="#231F20"/>
<path d="M113.548 130.67C113.342 133.188 112.546 135.622 111.224 137.775C110.56 138.85 109.673 139.769 108.622 140.47C107.571 141.171 106.381 141.636 105.134 141.835C103.883 142.001 102.612 141.775 101.496 141.188C100.379 140.601 99.4729 139.681 98.9015 138.557C98.5341 137.634 98.3248 136.656 98.2824 135.664C97.83 130.538 98.4807 125.374 100.191 120.52C100.764 118.666 101.695 116.942 102.931 115.445C110.757 106.726 114.137 125.524 113.548 130.67Z" fill="#231F20"/>
<path d="M104.403 142.333C104.663 142.348 104.924 142.348 105.184 142.333C106.504 142.128 107.764 141.642 108.879 140.908C109.995 140.175 110.939 139.21 111.65 138.08C113.021 135.863 113.842 133.35 114.045 130.751C114.522 126.61 112.706 115.049 108.219 113.04C106.443 112.248 104.545 112.969 102.556 115.202C101.282 116.742 100.317 118.513 99.7136 120.419C98.0007 125.3 97.34 130.489 97.7749 135.644C97.8303 136.687 98.0531 137.716 98.4347 138.689C98.9814 139.8 99.8328 140.732 100.89 141.377C101.946 142.023 103.165 142.354 104.403 142.333V142.333ZM106.819 113.709C107.168 113.705 107.515 113.778 107.834 113.923C111.691 115.648 113.528 126.651 113.081 130.599C112.888 133.038 112.119 135.396 110.838 137.481C110.208 138.487 109.371 139.347 108.382 140.004C107.393 140.66 106.275 141.098 105.103 141.287C103.952 141.44 102.782 141.228 101.757 140.682C100.732 140.136 99.9043 139.283 99.3888 138.242C99.0464 137.374 98.8509 136.454 98.8103 135.522C98.3822 130.491 99.0256 125.426 100.698 120.662C101.254 118.88 102.151 117.222 103.337 115.78C104.545 114.43 105.743 113.709 106.819 113.709Z" fill="#231F20"/>
<path d="M236.627 92.4554C232.719 91.8261 229.522 89.0146 227.096 85.8579C225.803 84.3687 224.996 82.5202 224.782 80.5596C224.773 79.3034 225.172 78.0782 225.919 77.068C226.665 76.0577 227.72 75.317 228.923 74.9568C230.665 74.6306 232.459 74.7175 234.161 75.2106C239.093 76.2256 244.382 76.6316 248.98 78.8138C253.872 81.128 251.01 85.4418 247.965 88.3954C245.112 91.0852 240.626 93.1152 236.627 92.4554Z" fill="#231F20"/>
<path d="M238.18 93.1152C241.977 92.9592 245.587 91.4215 248.33 88.7913C250.279 86.9237 252.512 84.173 252.106 81.6863C251.939 80.944 251.587 80.256 251.083 79.6863C250.579 79.1166 249.939 78.6838 249.223 78.4281C245.729 76.9632 242.051 75.9831 238.291 75.5151C236.972 75.2918 235.602 75.0583 234.292 74.7843C232.513 74.275 230.639 74.1915 228.821 74.5407C227.507 74.9226 226.355 75.7253 225.541 76.8254C224.727 77.9254 224.296 79.2622 224.315 80.6307C224.523 82.6996 225.367 84.6533 226.731 86.2233C228.761 88.9232 232.151 92.3133 236.576 93.0238C237.108 93.0934 237.644 93.1239 238.18 93.1152V93.1152ZM230.689 75.2309C231.825 75.271 232.954 75.4274 234.059 75.6978C235.388 75.9718 236.759 76.2053 238.119 76.4387C241.732 77.0579 245.478 77.6872 248.786 79.2503C249.35 79.4469 249.855 79.7796 250.259 80.2187C250.663 80.6578 250.952 81.1898 251.101 81.7675C251.456 83.97 249.071 86.6293 247.619 88.0199C245.092 90.4457 240.738 92.5975 236.728 91.9479C232.668 91.2882 229.461 88.1011 227.522 85.5433C226.307 84.1325 225.543 82.3892 225.33 80.5393C225.328 79.4007 225.693 78.2918 226.371 77.3774C227.05 76.4631 228.005 75.7921 229.095 75.4643C229.615 75.323 230.151 75.2479 230.689 75.241V75.2309Z" fill="#231F20"/>
<path d="M228.862 80.9351C228.172 80.4276 214.378 76.7431 214.378 71.0185C214.378 65.2939 227.36 68.9276 227.36 68.9276C227.36 68.9276 224.853 47.4401 227.908 46.4251C230.963 45.4101 233.815 54.6161 233.623 63.6801C233.623 63.6801 233.43 48.9727 237.053 49.6122C240.677 50.2516 240.098 67.0093 240.098 67.0093C240.098 67.0093 241.245 51.3884 246.006 53.8143C250.766 56.2401 248.482 68.1055 248.482 68.1055C248.482 68.1055 249.243 55.3368 252.106 58.9705C254.968 62.6042 252.288 77.8901 250.766 80.9351C249.243 83.9801 237.622 87.4108 228.862 80.9351Z" fill="white"/>
<path d="M240.362 85.1067C242.012 85.111 243.658 84.9236 245.265 84.5484C248.249 83.8379 250.532 82.5184 251.223 81.1583C252.826 77.9509 255.567 62.5939 252.502 58.7065C251.811 57.8336 251.182 57.793 250.786 57.925C250.228 58.0975 249.771 58.7573 249.406 59.6606C249.122 57.0013 248.259 54.4841 246.239 53.4285C245.882 53.2237 245.478 53.1159 245.067 53.1159C244.655 53.1159 244.251 53.2237 243.894 53.4285C242.26 54.342 241.215 57.3159 240.565 60.2696C240.332 55.3063 239.55 49.5614 237.134 49.1046C236.871 49.0559 236.6 49.069 236.343 49.143C236.086 49.217 235.85 49.3498 235.653 49.5309C234.526 50.485 233.897 53.0225 233.541 55.7021C232.79 51.2463 231.39 47.5821 229.725 46.3641C229.461 46.1295 229.141 45.9678 228.796 45.8948C228.45 45.8218 228.092 45.8402 227.756 45.9479C224.711 46.902 226.101 62.3909 226.741 68.2779C224.518 67.7298 217.86 66.3393 215.119 68.4302C214.714 68.7306 214.387 69.125 214.168 69.5794C213.949 70.0337 213.843 70.5345 213.86 71.0388C213.86 76.1138 223.239 79.443 227.238 80.864C227.827 81.0771 228.426 81.2903 228.558 81.3613C231.985 83.8508 236.126 85.1646 240.362 85.1067ZM251.131 58.8791C251.263 58.8791 251.476 59.0516 251.71 59.3358C254.43 62.7868 251.771 77.7885 250.319 80.6508C249.862 81.5542 248.056 82.7925 245.031 83.5131C242.321 84.1649 239.503 84.2304 236.765 83.7052C234.027 83.1801 231.433 82.0765 229.157 80.4681V80.4681C228.652 80.2135 228.126 80.0063 227.583 79.849C224.112 78.6107 214.886 75.3221 214.886 70.9677C214.868 70.6196 214.936 70.2724 215.085 69.9571C215.233 69.6419 215.458 69.3684 215.738 69.161C218.59 66.9991 227.116 69.3335 227.198 69.364C227.278 69.3862 227.362 69.3883 227.443 69.3702C227.525 69.3521 227.6 69.3144 227.663 69.2602C227.726 69.2061 227.775 69.1372 227.806 69.0598C227.836 68.9823 227.847 68.8985 227.837 68.8159C226.67 58.6659 226.416 47.3893 228.06 46.8818C228.245 46.8299 228.44 46.826 228.626 46.8704C228.813 46.9148 228.985 47.006 229.126 47.1355C231.055 48.587 233.003 54.7886 233.115 62.0662C233.115 62.8477 233.115 63.4161 233.115 63.6394C233.118 63.7732 233.172 63.9008 233.267 63.9954C233.361 64.09 233.489 64.1443 233.623 64.1469V64.1469C233.755 64.1444 233.881 64.0915 233.975 63.9991C234.069 63.9066 234.125 63.7816 234.13 63.6496C234.13 63.1488 234.13 62.6515 234.13 62.1575C234.191 58.3716 234.648 51.6827 236.302 50.2617C236.391 50.182 236.496 50.1233 236.61 50.0899C236.724 50.0566 236.844 50.0493 236.962 50.0689C239.164 50.4546 239.824 60.2189 239.591 66.9585C239.591 67.0931 239.644 67.2221 239.739 67.3173C239.835 67.4125 239.964 67.466 240.098 67.466C240.233 67.466 240.362 67.4125 240.457 67.3173C240.552 67.2221 240.606 67.0931 240.606 66.9585C240.829 63.9135 241.956 55.5397 244.382 54.1898C244.592 54.0657 244.832 54.0003 245.077 54.0003C245.321 54.0003 245.561 54.0657 245.772 54.1898C248.259 55.489 248.645 59.7012 248.502 63.1319C248.188 65.0705 248.036 67.0295 247.975 68.0039C247.969 68.132 248.011 68.2577 248.094 68.3556C248.177 68.4535 248.294 68.5164 248.421 68.5317C248.485 68.5418 248.549 68.5393 248.612 68.5244C248.674 68.5094 248.733 68.4823 248.785 68.4446C248.837 68.4069 248.88 68.3593 248.914 68.3046C248.947 68.2499 248.97 68.1891 248.979 68.1257C249.268 66.5258 249.447 64.9083 249.517 63.2842C249.913 60.8583 250.482 58.94 251.08 58.7573L251.131 58.8791Z" fill="#231F20"/>
<path d="M108.737 120.449C108.442 119.647 108.94 105.376 103.469 103.712C97.9981 102.047 97.6936 115.496 97.6936 115.496C97.6936 115.496 77.8199 106.848 76.0233 109.487C74.2268 112.126 82.1134 117.526 90.8525 119.982C90.8525 119.982 76.8354 115.516 76.3888 119.16C75.9422 122.804 92.1517 127.148 92.1517 127.148C92.1517 127.148 76.8759 123.687 77.8605 128.965C78.845 134.243 90.8017 135.501 90.8017 135.501C90.8017 135.501 78.368 132.507 80.9968 136.303C83.6257 140.099 98.9928 141.977 102.312 141.378C105.631 140.779 112.381 130.721 108.737 120.449Z" fill="white"/>
<path d="M100.637 142.018C101.238 142.026 101.839 141.989 102.434 141.906C103.956 141.642 105.864 139.876 107.417 137.196C108.554 135.258 112.046 128.305 109.214 120.287C109.214 120.144 109.153 119.505 109.123 118.886C108.93 114.643 108.463 104.676 103.621 103.224C103.143 103.059 102.632 103.013 102.131 103.089C101.631 103.165 101.157 103.361 100.749 103.661C97.9577 105.691 97.3486 112.461 97.2167 114.735C91.8169 112.41 77.414 106.554 75.6073 109.203C75.4071 109.498 75.2853 109.839 75.2534 110.194C75.2214 110.549 75.2803 110.907 75.4246 111.233C76.1351 113.182 79.2106 115.587 83.2503 117.607C80.591 117.16 77.9723 117.028 76.734 117.82C76.5036 117.958 76.3079 118.147 76.1618 118.372C76.0158 118.597 75.9233 118.853 75.8915 119.119C75.5972 121.545 80.8549 123.971 85.534 125.636C82.489 125.402 79.373 125.534 78.023 126.833C77.7264 127.117 77.5094 127.473 77.3936 127.867C77.2778 128.26 77.2674 128.678 77.3633 129.076C77.7794 131.32 79.9312 132.873 82.4383 133.928C82.0624 133.918 81.6883 133.984 81.3391 134.124C80.99 134.263 80.6732 134.473 80.4083 134.74C80.1748 135.085 80.0226 135.694 80.662 136.608C83.0574 140.15 95.278 142.018 100.637 142.018ZM102.515 104.067C102.773 104.069 103.03 104.11 103.276 104.189C107.438 105.457 107.894 115.242 108.057 118.926C108.046 119.492 108.097 120.057 108.209 120.611V120.611C110.909 128.224 107.58 134.821 106.494 136.679C104.921 139.369 103.205 140.739 102.211 140.911C99.0133 141.449 83.8796 139.622 81.3624 136.009C81.1391 135.674 81.0376 135.4 81.1188 135.288C81.4741 134.771 83.4635 134.781 85.9096 135.106C87.4847 135.511 89.0852 135.809 90.7004 135.999C90.8278 136.013 90.9559 135.978 91.0581 135.901C91.1602 135.823 91.2284 135.709 91.2485 135.583C91.2703 135.457 91.2437 135.327 91.1741 135.22C91.1045 135.112 90.9969 135.035 90.8729 135.004C89.9188 134.781 88.0106 134.354 86.0517 134.091C82.7428 133.228 78.8147 131.624 78.3072 128.873C78.2422 128.638 78.2418 128.389 78.3061 128.153C78.3704 127.918 78.497 127.704 78.6727 127.534C80.7027 125.605 88.9648 126.955 91.9895 127.635C92.1173 127.666 92.2521 127.645 92.3643 127.576C92.4765 127.508 92.557 127.397 92.5883 127.27C92.6051 127.206 92.6093 127.14 92.6005 127.076C92.5917 127.011 92.5702 126.948 92.5372 126.891C92.5042 126.835 92.4603 126.785 92.4081 126.746C92.3559 126.706 92.2964 126.677 92.233 126.661C85.6761 124.905 76.5716 121.434 76.8456 119.221C76.862 119.104 76.9042 118.993 76.9692 118.894C77.0341 118.796 77.1202 118.713 77.2212 118.652C79.0685 117.475 85.595 118.987 89.2388 120.033L90.6598 120.469C90.7944 120.508 90.939 120.492 91.0618 120.425C91.1845 120.357 91.2754 120.244 91.3145 120.109C91.3535 119.974 91.3375 119.83 91.2699 119.707C91.2023 119.584 91.0887 119.493 90.9541 119.454L89.452 119.008C82.5094 116.775 77.1502 113.09 76.328 110.827C76.2457 110.654 76.2081 110.462 76.2188 110.271C76.2294 110.079 76.2879 109.894 76.3889 109.731C77.3532 108.32 88.0715 111.842 97.44 115.912C97.5158 115.945 97.5986 115.959 97.6811 115.953C97.7636 115.947 97.8433 115.921 97.9134 115.877C97.9834 115.833 98.0417 115.772 98.083 115.7C98.1243 115.629 98.1475 115.548 98.1505 115.465C98.1505 115.374 98.3941 106.533 101.297 104.442C101.652 104.19 102.079 104.058 102.515 104.067V104.067Z" fill="#231F20"/>
<path d="M158.249 133.482C158.249 133.482 172.296 136.608 180.416 132.081L183.279 140.201C183.279 140.201 165.841 145.631 156.889 141.49L158.249 133.482Z" fill="#231F20"/>
<path d="M165.729 143.591C171.731 143.412 177.682 142.443 183.431 140.708C183.558 140.665 183.664 140.574 183.725 140.455C183.775 140.327 183.775 140.186 183.725 140.059L180.863 131.939C180.84 131.869 180.801 131.806 180.75 131.753C180.699 131.7 180.637 131.66 180.568 131.634C180.501 131.604 180.429 131.588 180.355 131.588C180.282 131.588 180.209 131.604 180.142 131.634C172.286 136.009 158.462 133.005 158.33 132.974C158.194 132.945 158.051 132.97 157.934 133.045C157.822 133.125 157.745 133.245 157.721 133.38L156.31 141.429C156.292 141.539 156.31 141.651 156.361 141.75C156.412 141.849 156.494 141.928 156.594 141.977C159.491 143.152 162.604 143.702 165.729 143.591ZM182.619 139.896C179.756 140.719 165.364 144.565 157.406 141.216L158.654 134.111C161.253 134.629 172.702 136.588 180.132 132.842L182.619 139.896Z" fill="#231F20"/>
<path d="M193.418 128.366C193.418 128.366 217.423 119.82 223.138 115.08L228.284 124.215C228.284 124.215 203.284 135.38 195.702 135.836L193.418 128.366Z" fill="#231F20"/>
<path d="M195.702 136.303C203.284 135.877 227.441 125.138 228.466 124.641C228.592 124.576 228.689 124.468 228.74 124.337C228.768 124.272 228.782 124.203 228.782 124.134C228.782 124.064 228.768 123.995 228.74 123.931L223.594 114.796C223.558 114.731 223.509 114.675 223.449 114.631C223.39 114.588 223.321 114.557 223.249 114.542C223.176 114.529 223.101 114.532 223.029 114.551C222.957 114.571 222.89 114.605 222.833 114.653C217.24 119.282 193.499 127.767 193.266 127.848C193.204 127.868 193.147 127.9 193.098 127.941C193.049 127.983 193.008 128.034 192.979 128.092C192.95 128.15 192.932 128.213 192.927 128.277C192.923 128.342 192.931 128.406 192.951 128.468L195.235 135.897C195.256 136.008 195.313 136.108 195.398 136.182C195.483 136.256 195.59 136.298 195.702 136.303ZM227.573 123.941C224.051 125.494 203.274 134.568 196.108 135.268L194.078 128.681C197.417 127.473 217.027 120.317 223.026 115.841L227.573 123.941Z" fill="#231F20"/>
<path d="M249.051 251.577C249.141 251.575 249.23 251.55 249.309 251.504C249.387 251.457 249.452 251.392 249.497 251.313C249.56 251.195 249.575 251.058 249.539 250.929C249.504 250.8 249.419 250.691 249.304 250.623C249.203 250.572 239.022 244.918 230.578 250.623C230.466 250.697 230.389 250.812 230.362 250.944C230.336 251.075 230.362 251.211 230.435 251.323C230.515 251.431 230.633 251.505 230.765 251.53C230.897 251.554 231.033 251.528 231.146 251.455C239.083 246.065 248.705 251.455 248.807 251.455C248.876 251.517 248.96 251.559 249.051 251.577Z" fill="#231F20"/>
<path d="M201.143 246.045C201.267 246.044 201.386 245.997 201.477 245.913C201.57 245.818 201.623 245.691 201.623 245.558C201.623 245.425 201.57 245.298 201.477 245.203C194.027 236.9 174.519 231.744 173.697 231.521C173.567 231.489 173.429 231.51 173.314 231.578C173.198 231.646 173.114 231.757 173.078 231.886C173.061 231.951 173.057 232.018 173.066 232.084C173.076 232.15 173.098 232.214 173.132 232.271C173.166 232.329 173.211 232.379 173.264 232.419C173.318 232.459 173.378 232.489 173.443 232.505C173.636 232.505 193.479 237.803 200.716 245.883C200.77 245.941 200.837 245.985 200.911 246.013C200.984 246.042 201.064 246.052 201.143 246.045V246.045Z" fill="#231F20"/>
<path d="M204.847 266.305C204.847 266.305 208.572 257.17 199.133 251.08C189.693 244.99 163.73 231.033 158.715 233.571C154.493 235.712 153.64 240.29 155.051 244.563C156.597 248.691 159.261 252.308 162.745 255.008C169.495 260.539 178.244 264.599 186.537 267.188C190.323 268.335 202.523 272.049 204.847 266.305Z" fill="#231F20"/>
<path d="M198.301 269.918C202.046 269.918 204.391 268.771 205.324 266.497C205.477 266.101 209.039 256.865 199.407 250.643C190.272 244.736 163.882 230.394 158.482 233.114C154.422 235.144 152.879 239.732 154.564 244.705C156.137 248.921 158.85 252.618 162.4 255.383C168.49 260.387 177.006 264.741 186.354 267.644C190.207 268.97 194.23 269.736 198.301 269.918V269.918ZM204.391 266.122C203.376 268.568 199.519 270.659 186.699 266.68C177.463 263.808 169.079 259.524 163.08 254.601C159.657 251.954 157.042 248.404 155.528 244.35C154.006 239.864 155.346 235.804 158.939 233.977C163.344 231.744 187.633 244.188 198.859 251.455C207.791 257.261 204.533 265.746 204.38 266.122H204.391Z" fill="#231F20"/>
<path d="M200.676 68.1156C200.676 68.1156 193.814 60.1783 193.418 61.1527C193.022 62.1271 152.727 72.8151 151.956 72.1756C151.184 71.5362 147.977 80.7016 147.977 80.7016C147.977 80.7016 176.996 94.3432 200.676 68.1156Z" fill="white"/>
<path d="M166.034 84.6905C176.305 84.6905 189.379 81.3918 201.051 68.4505C201.132 68.3596 201.176 68.2422 201.176 68.1207C201.176 67.9991 201.132 67.8818 201.051 67.7908C196.788 62.8579 194.22 60.432 193.428 60.5741C193.346 60.5861 193.266 60.6147 193.194 60.6583C193.123 60.702 193.061 60.7596 193.012 60.8279C190.82 62.1677 155.011 71.6985 152.179 71.6985C152.032 71.6432 151.869 71.6432 151.722 71.6985C150.707 71.9726 148.89 76.672 147.54 80.5696C147.495 80.6872 147.496 80.8175 147.543 80.9343C147.59 81.0511 147.68 81.1457 147.794 81.1989C153.586 83.5482 159.784 84.7346 166.034 84.6905V84.6905ZM199.955 68.1054C178.447 91.6331 152.25 81.95 148.616 80.4275C149.804 77.0476 151.316 73.3225 151.925 72.6831C152.473 72.744 154.118 72.5004 160.37 70.9779C160.685 70.9068 190.18 63.5176 193.581 61.5891C194.372 61.9545 197.357 65.0706 199.955 68.1054ZM193.865 61.3455C193.842 61.3966 193.809 61.4421 193.767 61.4789C193.725 61.5157 193.675 61.5429 193.621 61.5587C193.719 61.509 193.803 61.4357 193.865 61.3455V61.3455Z" fill="#231F20"/>
<path d="M233.876 104.067C233.976 104.066 234.072 104.035 234.155 103.979C234.237 103.923 234.301 103.845 234.338 103.753C234.376 103.661 234.386 103.56 234.367 103.462C234.348 103.365 234.301 103.275 234.232 103.204C229.441 98.4946 227.127 93.3587 227.421 87.9792C227.52 85.6162 228.159 83.3073 229.289 81.2295C229.36 81.1151 229.383 80.977 229.352 80.8457C229.322 80.7143 229.241 80.6005 229.126 80.5291C229.012 80.4578 228.874 80.4348 228.742 80.4653C228.611 80.4957 228.497 80.5771 228.426 80.6915C228.355 80.8032 221.524 92.1509 233.501 103.955C233.552 104 233.611 104.033 233.676 104.052C233.741 104.072 233.809 104.077 233.876 104.067V104.067Z" fill="#231F20"/>
<path d="M227.36 68.9276C227.36 68.9276 234.323 67.4964 238.322 75.2104Z" fill="white"/>
<path d="M238.291 75.7179C238.369 75.7312 238.448 75.7312 238.525 75.7179C238.643 75.6553 238.731 75.5489 238.771 75.4216C238.811 75.2943 238.799 75.1565 238.738 75.0379C234.607 67.0701 227.309 68.4708 227.228 68.481C227.093 68.5079 226.975 68.5872 226.899 68.7014C226.823 68.8156 226.795 68.9554 226.822 69.09C226.849 69.2246 226.928 69.343 227.042 69.4191C227.157 69.4952 227.296 69.5229 227.431 69.496C227.705 69.4351 234.069 68.2475 237.845 75.5149C237.895 75.5845 237.963 75.6397 238.041 75.6753C238.12 75.7109 238.206 75.7256 238.291 75.7179Z" fill="#231F20"/>
<path d="M97.6937 115.496C97.6937 115.496 93.4003 120.682 100.83 127.513Z" fill="white"/>
<path d="M100.83 128.021C100.899 128.02 100.966 128.005 101.029 127.977C101.092 127.949 101.149 127.909 101.195 127.859C101.243 127.811 101.281 127.755 101.306 127.693C101.332 127.632 101.345 127.565 101.345 127.498C101.345 127.431 101.332 127.365 101.306 127.303C101.281 127.241 101.243 127.185 101.195 127.138C94.202 120.713 98.0692 115.861 98.1504 115.81C98.1923 115.76 98.2239 115.701 98.2433 115.639C98.2627 115.576 98.2696 115.51 98.2634 115.444C98.2573 115.379 98.2384 115.315 98.2076 115.257C98.1769 115.199 98.135 115.147 98.0844 115.105C98.0337 115.063 97.9753 115.031 97.9124 115.012C97.8496 114.993 97.7835 114.986 97.718 114.992C97.6525 114.998 97.5888 115.017 97.5307 115.048C97.4725 115.078 97.4209 115.12 97.3789 115.171C97.3282 115.171 92.8622 120.814 100.556 127.889C100.633 127.957 100.728 128.003 100.83 128.021Z" fill="#231F20"/>
<path d="M177.188 130.152L195.083 125.443L199.224 136.445L181.37 142.16L177.188 130.152Z" fill="#231F20"/>
<path d="M181.36 142.667C181.414 142.677 181.469 142.677 181.523 142.667L199.376 136.953C199.442 136.932 199.503 136.899 199.555 136.854C199.607 136.809 199.65 136.754 199.68 136.693C199.711 136.631 199.728 136.564 199.732 136.495C199.735 136.426 199.725 136.358 199.701 136.293L195.56 125.291C195.514 125.173 195.427 125.077 195.314 125.021C195.202 124.965 195.072 124.952 194.951 124.986L177.057 129.655C176.99 129.672 176.928 129.702 176.874 129.744C176.82 129.786 176.775 129.839 176.742 129.899C176.692 130.029 176.692 130.174 176.742 130.305L180.914 142.312C180.945 142.409 181.004 142.494 181.083 142.557C181.163 142.62 181.259 142.659 181.36 142.667V142.667ZM198.564 136.121L181.685 141.531L177.848 130.498L194.768 126.042L198.564 136.121Z" fill="#231F20"/>
<path d="M202.371 159.943C202.371 159.943 195.702 168.347 185.034 164.642Z" fill="white"/>
<path d="M190.363 166.083C192.721 166.022 195.04 165.472 197.175 164.469C199.31 163.467 201.214 162.032 202.767 160.257C202.809 160.206 202.841 160.146 202.859 160.082C202.878 160.018 202.884 159.951 202.877 159.885C202.869 159.818 202.848 159.754 202.815 159.696C202.783 159.638 202.738 159.587 202.685 159.547C202.634 159.506 202.575 159.476 202.512 159.458C202.449 159.44 202.383 159.434 202.318 159.442C202.253 159.449 202.19 159.47 202.133 159.502C202.076 159.534 202.026 159.576 201.985 159.628C199.985 162.006 197.306 163.715 194.307 164.526C191.308 165.337 188.133 165.211 185.207 164.165C185.079 164.123 184.94 164.132 184.818 164.19C184.697 164.249 184.603 164.353 184.557 164.48C184.515 164.606 184.525 164.744 184.584 164.864C184.643 164.984 184.746 165.075 184.872 165.119C186.636 165.745 188.492 166.071 190.363 166.083V166.083Z" fill="#231F20"/>
<path d="M234.374 202.43C237.716 202.524 241.027 201.777 244.006 200.258C246.371 199.096 248.302 197.207 249.517 194.869C249.564 194.746 249.561 194.61 249.509 194.489C249.458 194.369 249.362 194.273 249.241 194.222C249.12 194.17 248.984 194.168 248.862 194.215C248.739 194.262 248.639 194.354 248.584 194.473C248.381 194.94 243.275 205.963 222.508 199.335C222.443 199.308 222.373 199.295 222.303 199.296C222.233 199.298 222.163 199.314 222.1 199.344C222.036 199.373 221.979 199.416 221.933 199.469C221.886 199.522 221.851 199.584 221.83 199.651C221.809 199.718 221.802 199.789 221.81 199.859C221.817 199.929 221.839 199.996 221.874 200.057C221.91 200.118 221.957 200.171 222.014 200.213C222.07 200.254 222.135 200.284 222.204 200.299C226.127 201.631 230.232 202.35 234.374 202.43V202.43Z" fill="#D1D3D4"/>
<path d="M154.28 189.459C154.342 189.46 154.403 189.449 154.461 189.426C154.518 189.404 154.571 189.37 154.615 189.327C169.84 175.513 184.101 186.586 184.7 187.063C184.751 187.105 184.811 187.137 184.875 187.156C184.939 187.174 185.007 187.181 185.073 187.173C185.14 187.166 185.204 187.146 185.263 187.114C185.321 187.082 185.373 187.039 185.415 186.987C185.457 186.935 185.488 186.875 185.507 186.811C185.526 186.747 185.532 186.68 185.525 186.614C185.518 186.547 185.498 186.483 185.466 186.424C185.434 186.365 185.391 186.314 185.339 186.272C185.177 186.15 169.82 174.163 153.935 188.576C153.887 188.623 153.85 188.679 153.824 188.741C153.798 188.803 153.785 188.869 153.785 188.936C153.785 189.003 153.798 189.069 153.824 189.131C153.85 189.193 153.887 189.249 153.935 189.296C153.979 189.345 154.032 189.384 154.091 189.412C154.15 189.44 154.215 189.456 154.28 189.459V189.459Z" fill="#D1D3D4"/>
<path d="M122.165 110.076C122.165 110.076 130.387 107.792 135.117 118.46Z" fill="white"/>
<path d="M135.117 118.967C135.187 118.982 135.259 118.982 135.33 118.967C135.452 118.912 135.547 118.81 135.595 118.685C135.643 118.559 135.638 118.42 135.584 118.297C130.722 107.356 122.115 109.609 122.033 109.629C121.904 109.667 121.794 109.754 121.728 109.872C121.661 109.989 121.644 110.128 121.678 110.258C121.716 110.385 121.802 110.493 121.917 110.557C122.033 110.622 122.169 110.638 122.297 110.604C122.622 110.522 130.163 108.574 134.66 118.724C134.706 118.802 134.774 118.867 134.854 118.91C134.935 118.952 135.025 118.972 135.117 118.967V118.967Z" fill="#231F20"/>
<path d="M227.36 108.837C227.36 108.837 213.454 104.422 207.74 101.54Z" fill="white"/>
<path d="M227.36 109.355C227.495 109.375 227.632 109.341 227.741 109.26C227.851 109.179 227.923 109.058 227.944 108.924C227.964 108.789 227.93 108.652 227.849 108.542C227.768 108.433 227.647 108.36 227.512 108.34C227.38 108.34 213.586 103.915 207.973 101.073C207.854 101.012 207.715 101.002 207.587 101.044C207.46 101.086 207.354 101.176 207.293 101.296C207.262 101.355 207.243 101.42 207.238 101.486C207.232 101.553 207.24 101.62 207.261 101.683C207.281 101.747 207.315 101.805 207.359 101.856C207.403 101.906 207.457 101.947 207.517 101.976C213.201 104.848 226.639 109.132 227.208 109.304C227.255 109.331 227.306 109.348 227.36 109.355Z" fill="#231F20"/>
<path d="M156.838 128.021H156.98C157.109 127.983 157.218 127.896 157.283 127.778C157.347 127.66 157.363 127.521 157.325 127.392L148.464 97.175C148.445 97.1083 148.414 97.046 148.371 96.9916C148.328 96.9371 148.275 96.8917 148.215 96.8577C148.155 96.8238 148.088 96.8021 148.019 96.7938C147.951 96.7855 147.881 96.7909 147.814 96.8096C147.748 96.8282 147.685 96.8598 147.631 96.9026C147.577 96.9453 147.531 96.9984 147.497 97.0587C147.463 97.119 147.441 97.1854 147.433 97.2541C147.425 97.3228 147.43 97.3925 147.449 97.4592L156.31 127.625C156.338 127.742 156.406 127.846 156.503 127.918C156.599 127.99 156.717 128.027 156.838 128.021V128.021Z" fill="#231F20"/>
<path d="M139.948 56.1487C140.002 56.5682 140.063 56.9742 140.131 57.3667C140.441 59.4179 141.234 61.3661 142.445 63.0507C143.622 64.5732 146.069 66.5829 148.18 66.0957C149.997 65.6998 150.392 63.5074 150.778 61.9748C151.397 59.2266 151.422 56.3778 150.852 53.6191C150.281 50.8604 149.128 48.2554 147.469 45.9784C145.622 43.4003 142.892 42.7507 141.288 45.9784C139.847 48.8204 139.562 52.8398 139.948 56.1487Z" fill="white"/>
<path d="M147.54 66.725C147.793 66.7276 148.045 66.7004 148.291 66.6438C150.321 66.2175 150.788 64.086 151.174 62.5229L151.265 62.1575C151.915 59.3347 151.95 56.4051 151.367 53.5679C150.783 50.7306 149.596 48.0521 147.885 45.7145C146.718 44.0905 145.267 43.2176 143.826 43.3191C142.963 43.3902 141.745 43.8571 140.781 45.745C139.356 49.0369 138.878 52.6609 139.4 56.2096C139.454 56.6359 139.515 57.0521 139.583 57.4581C139.905 59.5887 140.733 61.611 141.998 63.3552C142.993 64.5935 145.236 66.725 147.54 66.725ZM144.089 44.395C144.706 44.4833 145.294 44.7124 145.808 45.0644C146.322 45.4164 146.748 45.882 147.053 46.425C148.677 48.6388 149.806 51.1754 150.365 53.8634C150.923 56.5513 150.898 59.3279 150.291 62.0053L150.19 62.3808C149.844 63.8221 149.438 65.4258 148.068 65.7506C146.19 66.1566 143.876 64.1977 142.851 62.868C141.685 61.2474 140.923 59.3718 140.628 57.3972C140.561 57.0115 140.5 56.6156 140.446 56.2096C139.957 52.8584 140.403 49.4375 141.735 46.3235C141.908 45.8458 142.203 45.4219 142.591 45.0941C142.98 44.7664 143.447 44.5463 143.947 44.4559L144.089 44.395Z" fill="#231F20"/>
<path d="M144.546 62.5127C147.177 68.3667 151.84 73.0691 157.671 75.7493C163.503 78.4296 170.108 78.9061 176.264 77.0907C182.419 75.2754 187.709 71.291 191.153 65.8754C194.597 60.4597 195.962 53.9797 194.995 47.635C194.029 41.2902 190.796 35.5106 185.896 31.3662C180.995 27.2218 174.759 24.9934 168.342 25.0934C161.925 25.1935 155.761 27.6153 150.992 31.9105C146.224 36.2056 143.173 42.0832 142.404 48.455C141.819 53.2486 142.559 58.111 144.546 62.5127Z" fill="white"/>
<path d="M168.713 78.6513C174.126 78.6506 179.414 77.022 183.89 73.9773C188.366 70.9325 191.823 66.6122 193.811 61.5776C195.8 56.5429 196.229 51.0266 195.042 45.7451C193.855 40.4636 191.107 35.6611 187.156 31.9613C183.819 28.8282 179.74 26.5954 175.302 25.4728C170.864 24.3502 166.214 24.3747 161.789 25.544C157.363 26.7133 153.308 28.989 150.004 32.1571C146.7 35.3252 144.256 39.2815 142.902 43.6541C142.432 45.1926 142.092 46.7681 141.887 48.3637C141.024 55.4767 143.021 62.6411 147.439 68.2824C151.856 73.9237 158.333 77.5802 165.445 78.4483C166.53 78.5798 167.621 78.6476 168.713 78.6513ZM168.663 25.6784C175.277 25.6738 181.645 28.1932 186.466 32.7225C190.61 36.6212 193.365 41.7684 194.312 47.3791C195.352 53.6052 194.089 59.997 190.76 65.3598C187.43 70.7227 182.262 74.6895 176.22 76.5189C170.179 78.3482 163.678 77.9149 157.933 75.2999C152.187 72.6848 147.591 68.0671 145.003 62.3098V62.3098C143.048 57.9889 142.321 53.2128 142.902 48.5058C143.095 46.969 143.418 45.4513 143.866 43.9687C145.506 38.6728 148.798 34.0406 153.259 30.7496C157.721 27.4587 163.118 25.6816 168.663 25.6784Z" fill="#231F20"/>
<path d="M175.453 58.2396L179.076 67.74C179.076 67.74 178.061 74.6014 171.525 74.9364C169.572 75.0008 167.63 74.6308 165.838 73.8532C164.046 73.0756 162.448 71.9098 161.162 70.4399L155.863 52.7688C155.863 52.7688 159.609 48.9219 155.224 39.2591C155.224 39.2591 164.663 40.4771 173.321 36.5491C173.321 36.5491 177.757 46.7904 178.498 51.8654C179.239 56.9404 175.453 58.2396 175.453 58.2396Z" fill="white"/>
<path d="M170.865 75.4642H171.535C178.417 75.1089 179.564 67.8923 179.574 67.8212C179.599 67.7351 179.599 67.6435 179.574 67.5573L176.113 58.5137C177.199 57.9148 179.645 56.0777 179.015 51.7842C178.275 46.7092 173.94 36.7622 173.798 36.3359C173.772 36.272 173.734 36.2139 173.685 36.1651C173.636 36.1163 173.578 36.0777 173.514 36.0517C173.45 36.0244 173.381 36.0103 173.311 36.0103C173.241 36.0103 173.172 36.0244 173.108 36.0517C164.674 39.8783 155.386 38.7313 155.295 38.711C155.201 38.7015 155.106 38.716 155.019 38.7533C154.932 38.7906 154.856 38.8494 154.798 38.9242C154.75 39.0041 154.725 39.0952 154.725 39.1881C154.725 39.2809 154.75 39.3721 154.798 39.452C158.959 48.587 155.569 52.3526 155.539 52.3831C155.473 52.4503 155.428 52.5339 155.406 52.6251C155.385 52.7162 155.388 52.8115 155.417 52.9007L160.664 70.582C160.685 70.6444 160.715 70.7028 160.756 70.7546C162.012 72.2094 163.563 73.3814 165.305 74.1932C167.048 75.005 168.943 75.4382 170.865 75.4642V75.4642ZM178.538 67.7908C178.366 68.7246 177.107 74.1142 171.504 74.4086C169.651 74.4657 167.807 74.1164 166.103 73.3853C164.398 72.6541 162.875 71.5587 161.639 70.176L156.442 52.921C157.193 51.906 159.487 47.9881 156.056 39.8986C161.847 40.3369 167.66 39.4375 173.047 37.2697C173.93 39.3606 177.351 47.6532 177.98 51.9669C178.65 56.5243 175.412 57.7423 175.28 57.7829C175.146 57.8348 175.037 57.9366 174.976 58.0671C174.948 58.1311 174.933 58.2002 174.933 58.2701C174.933 58.3399 174.948 58.409 174.976 58.4731L178.538 67.7908Z" fill="#231F20"/>
<path d="M166.46 45.0649C166.46 45.0649 170.966 49.6933 170.327 50.7692C169.688 51.8451 167.282 51.6827 167.282 51.6827" fill="white"/>
<path d="M167.678 52.2004C168.48 52.2004 170.185 52.0786 170.804 51.023C171.525 49.7948 168.632 46.5469 166.846 44.7097C166.799 44.6624 166.744 44.6249 166.683 44.5993C166.622 44.5736 166.557 44.5604 166.49 44.5604C166.424 44.5604 166.359 44.5736 166.298 44.5993C166.237 44.6249 166.182 44.6624 166.135 44.7097C166.088 44.7569 166.05 44.813 166.024 44.8749C165.998 44.9367 165.985 45.003 165.985 45.07C165.985 45.137 165.998 45.2034 166.024 45.2652C166.05 45.327 166.088 45.3832 166.135 45.4304C168.267 47.6228 170.043 50.008 169.921 50.5054C169.576 51.0941 168.054 51.1956 167.353 51.155C167.287 51.1494 167.22 51.1572 167.157 51.1778C167.094 51.1984 167.036 51.2315 166.986 51.275C166.936 51.3185 166.895 51.3716 166.865 51.4312C166.836 51.4907 166.819 51.5556 166.815 51.6219C166.811 51.6885 166.82 51.7554 166.842 51.8185C166.864 51.8817 166.898 51.9399 166.942 51.9899C166.986 52.0399 167.04 52.0806 167.1 52.1098C167.16 52.1389 167.226 52.1559 167.292 52.1598L167.678 52.2004Z" fill="#231F20"/>
<path d="M167.82 56.7983C168.24 56.8028 168.66 56.7551 169.069 56.6562C171.016 56.0784 172.664 54.7688 173.666 53.0022C173.7 52.9453 173.722 52.8822 173.731 52.8166C173.739 52.751 173.734 52.6844 173.716 52.6207C173.698 52.5571 173.667 52.4978 173.626 52.4465C173.584 52.3952 173.532 52.3529 173.474 52.3222C173.416 52.2882 173.352 52.2663 173.286 52.2576C173.219 52.2489 173.152 52.2538 173.087 52.2718C173.023 52.2898 172.963 52.3206 172.911 52.3624C172.858 52.4042 172.815 52.4561 172.783 52.515C171.909 54.0247 170.5 55.1512 168.835 55.6717C168.008 55.815 167.16 55.7776 166.349 55.5621C165.537 55.3466 164.782 54.9581 164.136 54.4232C164.081 54.3843 164.019 54.3565 163.954 54.3415C163.889 54.3266 163.821 54.3247 163.755 54.336C163.689 54.3474 163.626 54.3717 163.569 54.4075C163.513 54.4434 163.464 54.4901 163.425 54.545C163.386 54.5987 163.359 54.6597 163.344 54.7242C163.329 54.7887 163.327 54.8556 163.339 54.9208C163.35 54.986 163.374 55.0483 163.41 55.1041C163.446 55.1598 163.492 55.2078 163.547 55.2454C164.772 56.1999 166.268 56.7433 167.82 56.7983V56.7983Z" fill="#231F20"/>
<path d="M161.642 45.1667C161.462 44.374 161.587 43.67 161.92 43.5944C162.254 43.5187 162.67 44.0999 162.85 44.8925C163.03 45.6852 162.905 46.3891 162.572 46.4648C162.238 46.5405 161.822 45.9593 161.642 45.1667Z" fill="#231F20"/>
<path d="M169.61 42.8135C169.43 42.0209 169.555 41.3169 169.888 41.2412C170.222 41.1655 170.638 41.7467 170.818 42.5394C170.998 43.332 170.873 44.036 170.54 44.1117C170.206 44.1874 169.79 43.6062 169.61 42.8135Z" fill="#231F20"/>
<path d="M153.519 46.3133C153.255 42.9131 153.387 39.2692 155.853 36.6302C159.081 33.23 166.46 30.1139 170.936 32.8443C171.462 33.1673 171.952 33.545 172.398 33.9709C173.15 34.7095 173.83 35.5185 174.428 36.3866C176.634 39.5005 178.261 42.9871 179.229 46.6787C180.305 50.7387 181.573 55.2555 179.645 59.3459C178.352 61.8144 176.138 63.6742 173.484 64.5224C172.266 64.9792 171.007 65.0502 169.809 65.4461C168.212 66.1601 166.545 66.7077 164.836 67.0802C162.684 67.3746 161.009 67.3137 159.517 65.4968C158.707 64.4157 158.095 63.1991 157.711 61.9037C155.965 56.7475 153.945 51.8146 153.519 46.3133ZM177.747 52.3018C177.721 50.3016 177.26 48.3309 176.397 46.5265L174.204 40.9643C174 40.293 173.654 39.6734 173.189 39.1474C172.103 38.1324 170.632 38.9241 169.403 39.2286C167.252 39.7272 165.147 40.4063 163.11 41.2586C162.024 41.7357 159.954 42.4563 159.497 43.7048C158.482 46.3133 159.944 49.3786 160.603 51.8958C161.358 55.0022 162.96 57.838 165.232 60.0869C167.262 61.9646 170.621 60.8786 172.672 59.6504C174.653 58.5026 176.233 56.7734 177.199 54.6972C177.512 53.9343 177.697 53.125 177.747 52.3018Z" fill="black"/>
<path d="M144.546 62.5128C147.177 68.3922 151.862 73.1104 157.723 75.7835C163.583 78.4565 170.217 78.9011 176.382 77.0337C182.547 75.1664 187.819 71.1153 191.211 65.6396C194.603 60.1638 195.882 53.6391 194.809 47.2878C193.286 50.8505 183.837 62.3403 167.323 65.4868C155.701 67.7401 150.545 64.756 144.546 62.5128Z" fill="white"/>
<path d="M168.744 78.6513C172.663 78.6454 176.534 77.7857 180.087 76.132C183.64 74.4784 186.79 72.0704 189.318 69.0757C191.846 66.081 193.692 62.5715 194.726 58.7912C195.76 55.011 195.958 51.0508 195.306 47.1863C195.287 47.0793 195.233 46.9815 195.154 46.9073C195.075 46.833 194.973 46.7861 194.865 46.7736C194.757 46.7611 194.648 46.7836 194.554 46.8378C194.46 46.892 194.386 46.975 194.342 47.0746C192.759 50.7692 183.4 61.8835 167.221 64.9691C157.122 66.8874 152.138 64.9691 146.85 62.8376C146.14 62.5534 145.439 62.2793 144.719 62.0154C144.627 61.9775 144.527 61.9689 144.43 61.9907C144.334 62.0125 144.247 62.0637 144.181 62.1372C144.111 62.21 144.064 62.3024 144.048 62.4021C144.032 62.5018 144.046 62.6042 144.089 62.6955C145.973 66.94 148.929 70.6214 152.666 73.378C156.403 76.1345 160.793 77.8714 165.404 78.4178C166.512 78.5614 167.627 78.6394 168.744 78.6513V78.6513ZM194.525 48.9016C194.736 50.8661 194.719 52.8484 194.474 54.8089C193.629 61.6437 190.108 67.8645 184.684 72.1075C179.259 76.3504 172.373 78.2693 165.536 77.4434C161.306 76.9454 157.265 75.4049 153.777 72.9602C150.289 70.5154 147.462 67.243 145.551 63.4364L146.475 63.8018C151.661 65.8318 157.031 67.9735 167.414 65.9942C182.294 63.1522 191.591 53.5909 194.525 48.9016Z" fill="#231F20"/>
<path d="M143.389 43.8165C148.19 39.8377 155.112 35.1383 162.319 33.7477C170.362 32.1538 178.587 31.6824 186.76 32.347C183.486 29.2729 179.484 27.0819 175.13 25.9802C170.776 24.8785 166.213 24.9023 161.871 26.0493C157.529 27.1962 153.549 29.4287 150.307 32.5368C147.065 35.6449 144.667 39.5265 143.338 43.8165H143.389Z" fill="white"/>
<path d="M143.389 44.324C143.506 44.3211 143.62 44.2821 143.714 44.2123C148.271 40.4264 155.214 35.6356 162.4 34.245C170.416 32.6505 178.615 32.1824 186.76 32.8545C186.864 32.8625 186.969 32.8387 187.06 32.7861C187.15 32.7336 187.223 32.6548 187.268 32.5601C187.311 32.464 187.324 32.3567 187.304 32.253C187.284 32.1493 187.232 32.0544 187.156 31.9816C183.819 28.8485 179.74 26.6157 175.302 25.4931C170.864 24.3705 166.214 24.395 161.789 25.5643C157.363 26.7336 153.308 29.0093 150.004 32.1774C146.7 35.3454 144.256 39.3018 142.902 43.6744C142.872 43.7784 142.876 43.8892 142.912 43.9912C142.948 44.0932 143.016 44.1811 143.105 44.2428C143.191 44.294 143.289 44.322 143.389 44.324V44.324ZM179.655 31.535C173.805 31.5507 167.97 32.1182 162.227 33.23C155.508 34.5292 149.032 38.6704 144.445 42.294C146.523 36.8885 150.35 32.3335 155.316 29.3539C160.282 26.3743 166.102 25.1412 171.85 25.851C176.828 26.4425 181.524 28.4784 185.359 31.7075C183.492 31.5959 181.604 31.535 179.655 31.535Z" fill="#231F20"/>
<path d="M188.506 42.8725C188.15 41.8575 187.846 40.7613 187.592 39.6854C187.227 38.102 186.019 34.377 187.217 32.956C188.039 31.941 189.105 32.418 189.886 33.2402C193.439 36.9855 195.032 41.7459 196.088 46.6991C196.352 47.8968 196.808 51.1752 195.164 51.703C193.185 52.3526 190.992 48.5159 190.312 47.1863C189.608 45.7932 189.005 44.3516 188.506 42.8725Z" fill="white"/>
<path d="M194.697 52.2918C194.908 52.2937 195.117 52.2594 195.316 52.1903C197.458 51.5001 196.829 47.7344 196.585 46.5976C195.57 42.1012 194.119 36.9653 190.251 32.8951C190.003 32.5937 189.693 32.3476 189.344 32.1728C188.994 31.998 188.612 31.8983 188.221 31.8801C187.947 31.8966 187.68 31.9712 187.436 32.0989C187.193 32.2267 186.98 32.4047 186.811 32.6211C185.613 34.0421 186.384 37.0363 186.892 39.0257C186.963 39.3099 187.034 39.5637 187.085 39.787C187.337 40.8814 187.645 41.9621 188.008 43.0248C188.52 44.5394 189.141 46.015 189.866 47.4401C190.647 48.9524 192.586 52.2918 194.697 52.2918ZM188.303 32.9053C188.781 32.9671 189.217 33.2106 189.521 33.5853C193.215 37.4829 194.667 42.4564 195.611 46.7803C196.017 48.6885 196.006 50.8911 195.022 51.2057C193.784 51.6117 191.977 49.3483 190.779 46.9326C190.084 45.5622 189.487 44.1445 188.993 42.6899V42.6899C188.638 41.658 188.34 40.6076 188.1 39.5434C188.039 39.3201 187.978 39.0562 187.897 38.7618C187.501 37.1987 186.75 34.2857 187.612 33.2605C187.691 33.1513 187.792 33.0609 187.91 32.9959C188.028 32.9309 188.158 32.893 188.292 32.885L188.303 32.9053Z" fill="#231F20"/>
<path d="M199.224 112.461C199.224 112.461 212.876 139.074 225.716 141.52C238.555 143.967 245.244 134.842 241.052 129.513C236.86 124.184 229.207 124.113 229.238 124.113C229.268 124.113 228.284 123.981 228.284 122.428V120.114C228.284 120.114 241.722 121.231 245.325 128.66C249.061 136.354 241.854 145.651 230.385 145.662C208.055 145.662 195.174 113.588 195.174 113.588" fill="#442EBA"/>
<path d="M195.255 86.2942L202.797 112.755L165.983 123.027L158.167 95.3277L195.255 86.2942Z" fill="white"/>
<path d="M165.983 123.565H166.115L202.929 113.293C202.993 113.278 203.053 113.249 203.106 113.209C203.158 113.168 203.202 113.118 203.233 113.06C203.3 112.943 203.318 112.804 203.284 112.674L195.733 86.203C195.699 86.0772 195.618 85.9695 195.506 85.9031C195.394 85.8367 195.26 85.8168 195.134 85.8477L158.046 94.8813C157.913 94.9192 157.801 95.0064 157.731 95.1249C157.695 95.1817 157.672 95.2456 157.663 95.3122C157.655 95.3787 157.66 95.4464 157.68 95.5106L165.445 123.159C165.467 123.282 165.535 123.392 165.635 123.467C165.734 123.542 165.859 123.577 165.983 123.565V123.565ZM202.168 112.4L166.328 122.388L158.797 95.6831L194.88 86.8932L202.168 112.4Z" fill="#231F20"/>
<path d="M187.48 106.33C183.91 106.33 181.015 103.436 181.015 99.8647C181.015 96.2939 183.91 93.3992 187.48 93.3992C191.051 93.3992 193.946 96.2939 193.946 99.8647C193.946 103.436 191.051 106.33 187.48 106.33Z" fill="#442EBA"/>
<path d="M168.236 106.33C166.448 106.33 164.998 104.881 164.998 103.093C164.998 101.304 166.448 99.8547 168.236 99.8547C170.024 99.8547 171.474 101.304 171.474 103.093C171.474 104.881 170.024 106.33 168.236 106.33Z" fill="#442EBA"/>
<path d="M170.053 116.876H170.195L187.613 112.167C187.742 112.129 187.852 112.042 187.918 111.924C187.985 111.807 188.002 111.668 187.968 111.537C187.932 111.408 187.847 111.299 187.731 111.232C187.615 111.166 187.478 111.148 187.349 111.182L169.921 115.902C169.787 115.919 169.664 115.989 169.582 116.097C169.499 116.205 169.462 116.341 169.48 116.475C169.497 116.61 169.567 116.732 169.675 116.815C169.782 116.898 169.919 116.934 170.053 116.917V116.876Z" fill="#D1D3D4"/>
<path d="M147.977 130.843C147.977 130.843 145.49 130.081 145.541 132.081C145.592 134.081 149.408 148.372 149.408 148.372H154.28L147.977 130.843Z" fill="#442EBA"/>
<path d="M204.634 38.7821C204.634 38.7821 204.025 36.0619 202.797 36.0619C201.569 36.0619 195.174 37.422 195.174 37.422L196.352 41.0658L204.634 38.7821Z" fill="#442EBA"/>
<path d="M179.655 141.703C179.705 141.713 179.757 141.713 179.807 141.703C179.871 141.685 179.93 141.653 179.982 141.611C180.034 141.57 180.076 141.518 180.107 141.459C180.139 141.4 180.158 141.336 180.164 141.27C180.17 141.204 180.162 141.137 180.142 141.074L177.645 133.299C177.626 133.236 177.594 133.178 177.551 133.127C177.509 133.077 177.457 133.035 177.398 133.005C177.34 132.975 177.276 132.956 177.21 132.951C177.145 132.946 177.079 132.954 177.016 132.974C176.888 133.016 176.782 133.107 176.721 133.227C176.66 133.346 176.649 133.486 176.691 133.614L179.178 141.378C179.215 141.474 179.28 141.557 179.366 141.615C179.451 141.673 179.552 141.704 179.655 141.703Z" fill="white"/>
<path d="M199.579 135.075C199.643 135.089 199.709 135.089 199.772 135.075C199.896 135.023 199.994 134.925 200.045 134.802C200.096 134.678 200.097 134.539 200.046 134.415L197.001 127.067C196.947 126.945 196.849 126.849 196.726 126.798C196.603 126.747 196.466 126.745 196.341 126.793C196.279 126.817 196.223 126.854 196.175 126.901C196.128 126.947 196.09 127.003 196.065 127.065C196.039 127.126 196.026 127.192 196.027 127.259C196.027 127.325 196.041 127.391 196.067 127.452L199.112 134.801C199.156 134.886 199.224 134.957 199.306 135.006C199.389 135.054 199.484 135.078 199.579 135.075Z" fill="white"/>
<path d="M316.091 184.901C295.916 184.901 279.561 168.547 279.561 148.372C279.561 128.197 295.916 111.842 316.091 111.842C336.266 111.842 352.621 128.197 352.621 148.372C352.621 168.547 336.266 184.901 316.091 184.901Z" fill="white"/>
<path d="M316.071 185.419C324.953 185.429 333.543 182.246 340.274 176.451C347.005 170.656 351.43 162.635 352.742 153.851C354.053 145.066 352.164 136.103 347.419 128.595C342.674 121.086 335.388 115.533 326.891 112.948C317.495 110.085 307.346 111.07 298.676 115.688C290.006 120.305 283.525 128.177 280.658 137.572V137.572C278.971 143.108 278.604 148.961 279.587 154.664C280.57 160.367 282.875 165.76 286.318 170.412C289.76 175.063 294.245 178.843 299.412 181.45C304.579 184.056 310.284 185.415 316.071 185.419V185.419ZM316.071 112.339C321.253 112.333 326.376 113.445 331.089 115.598C335.803 117.752 339.996 120.897 343.384 124.819C346.771 128.741 349.272 133.348 350.717 138.324C352.162 143.301 352.517 148.531 351.757 153.657C350.997 158.783 349.14 163.685 346.313 168.028C343.486 172.371 339.755 176.054 335.375 178.824C330.996 181.594 326.07 183.387 320.934 184.08C315.799 184.773 310.574 184.351 305.616 182.841C301.09 181.463 296.88 179.206 293.226 176.2C289.572 173.195 286.547 169.498 284.322 165.322C282.098 161.147 280.718 156.573 280.261 151.864C279.805 147.155 280.281 142.402 281.662 137.877V137.877C283.918 130.503 288.475 124.045 294.667 119.449C300.859 114.854 308.36 112.362 316.071 112.339V112.339Z" fill="#D1D3D4"/>
<path d="M348.937 172.854C361.035 172.854 368.709 170.032 370.252 164.896C372.038 159.06 365.603 151.315 352.611 143.632C352.494 143.563 352.354 143.544 352.223 143.578C352.092 143.612 351.979 143.697 351.911 143.814C351.842 143.931 351.823 144.071 351.857 144.202C351.891 144.334 351.976 144.446 352.093 144.515C364.466 151.823 370.891 159.334 369.287 164.602C367.684 169.869 358.122 172.519 343.811 171.707C332.626 170.889 321.573 168.778 310.874 165.414C300.12 162.223 289.772 157.795 280.038 152.219C267.676 144.911 261.251 137.4 262.854 132.132C264.458 126.864 274.019 124.215 288.331 125.027C288.397 125.032 288.464 125.024 288.528 125.003C288.591 124.981 288.649 124.947 288.698 124.903C288.748 124.858 288.788 124.804 288.815 124.743C288.843 124.682 288.858 124.616 288.859 124.55C288.863 124.483 288.854 124.416 288.832 124.353C288.81 124.29 288.776 124.232 288.732 124.182C288.688 124.132 288.634 124.091 288.574 124.062C288.514 124.033 288.448 124.016 288.382 124.012C273.319 123.139 263.666 125.981 261.88 131.817C260.094 137.653 266.539 145.398 279.521 153.071C289.327 158.659 299.75 163.088 310.58 166.266C321.354 169.658 332.485 171.786 343.75 172.61C345.567 172.803 347.292 172.854 348.937 172.854Z" fill="#D1D3D4"/>
<path d="M340.969 128.833C341.083 128.831 341.194 128.792 341.284 128.721C341.388 128.638 341.455 128.516 341.471 128.383C341.486 128.25 341.448 128.116 341.365 128.011C340.325 126.705 339.109 125.551 337.751 124.58C337.642 124.503 337.506 124.472 337.374 124.492C337.241 124.513 337.122 124.585 337.041 124.692C337.002 124.746 336.974 124.808 336.959 124.873C336.944 124.939 336.942 125.006 336.954 125.072C336.965 125.138 336.989 125.202 337.025 125.258C337.061 125.315 337.108 125.364 337.163 125.402C338.441 126.322 339.588 127.411 340.573 128.64C340.62 128.7 340.68 128.749 340.749 128.783C340.817 128.816 340.893 128.833 340.969 128.833V128.833Z" fill="#D1D3D4"/>
<path d="M340.908 136.983H341.03C341.094 136.967 341.155 136.938 341.209 136.897C341.262 136.857 341.307 136.807 341.341 136.75C341.375 136.692 341.397 136.628 341.406 136.562C341.416 136.496 341.412 136.429 341.395 136.364C341.017 134.936 340.365 133.596 339.477 132.416C339.393 132.31 339.271 132.24 339.137 132.221C339.003 132.202 338.866 132.235 338.756 132.314C338.65 132.397 338.581 132.518 338.564 132.651C338.547 132.784 338.583 132.918 338.665 133.025C339.474 134.098 340.067 135.318 340.411 136.618C340.442 136.725 340.507 136.819 340.597 136.885C340.687 136.951 340.796 136.986 340.908 136.983Z" fill="#D1D3D4"/>
<path d="M346.673 141.206C346.727 141.216 346.782 141.216 346.836 141.206C346.962 141.16 347.066 141.066 347.125 140.945C347.183 140.824 347.193 140.684 347.15 140.556L346.237 137.877C346.192 137.749 346.099 137.644 345.977 137.585C345.855 137.526 345.715 137.518 345.587 137.562C345.459 137.606 345.354 137.7 345.295 137.822C345.236 137.943 345.228 138.084 345.272 138.212L346.186 140.891C346.228 140.985 346.296 141.065 346.382 141.121C346.469 141.177 346.57 141.207 346.673 141.206V141.206Z" fill="#D1D3D4"/>
<path d="M86.4576 234.921C71.4624 234.921 59.3064 222.765 59.3064 207.769C59.3064 192.774 71.4624 180.618 86.4576 180.618C101.453 180.618 113.609 192.774 113.609 207.769C113.609 222.765 101.453 234.921 86.4576 234.921Z" fill="white"/>
<path d="M86.4576 235.428C91.9301 235.43 97.2803 233.809 101.831 230.769C106.382 227.729 109.928 223.408 112.022 218.352C114.116 213.295 114.663 207.732 113.593 202.365C112.524 196.998 109.886 192.068 106.015 188.201C102.143 184.333 97.2107 181.701 91.8425 180.638C86.4743 179.574 80.9112 180.127 75.8574 182.227C70.8035 184.326 66.486 187.877 63.4513 192.431C60.4165 196.985 58.8009 202.337 58.809 207.81C58.8278 215.134 61.7477 222.153 66.9297 227.329C72.1116 232.505 79.1333 235.417 86.4576 235.428ZM86.4576 181.126C91.7259 181.124 96.8766 182.684 101.259 185.608C105.641 188.533 109.057 192.691 111.077 197.557C113.096 202.423 113.627 207.778 112.604 212.946C111.58 218.114 109.047 222.863 105.326 226.591C101.604 230.32 96.8602 232.862 91.6942 233.895C86.5282 234.929 81.1719 234.408 76.3021 232.398C71.4323 230.387 67.2677 226.979 64.3347 222.602C61.4017 218.226 59.832 213.078 59.824 207.81C59.8213 200.741 62.6248 193.96 67.6187 188.956C72.6126 183.953 79.3884 181.136 86.4576 181.126V181.126Z" fill="#D1D3D4"/>
<path d="M64.2394 207.932C64.3243 207.931 64.4077 207.91 64.483 207.871C64.5417 207.839 64.5936 207.796 64.6357 207.744C64.6777 207.692 64.709 207.632 64.7279 207.568C64.7468 207.504 64.7528 207.437 64.7456 207.37C64.7384 207.304 64.7181 207.239 64.686 207.181C64.1135 206.086 63.9898 204.812 64.3409 203.628C64.3609 203.561 64.3675 203.492 64.3605 203.422C64.3535 203.353 64.3329 203.286 64.2999 203.225C64.2669 203.163 64.2222 203.109 64.1682 203.065C64.1143 203.021 64.0523 202.988 63.9856 202.968C63.919 202.948 63.8491 202.942 63.7798 202.949C63.7106 202.956 63.6434 202.976 63.5822 203.009C63.5209 203.042 63.4668 203.087 63.4228 203.141C63.3788 203.195 63.3459 203.257 63.3259 203.324C62.8887 204.771 63.0419 206.333 63.7522 207.668C63.8 207.753 63.8713 207.824 63.9575 207.87C64.0438 207.917 64.1415 207.938 64.2394 207.932V207.932Z" fill="#D1D3D4"/>
<path d="M64.5541 215.016H64.7165C64.7796 214.996 64.838 214.963 64.8882 214.919C64.9384 214.876 64.9794 214.823 65.0087 214.763C65.038 214.704 65.0551 214.639 65.059 214.572C65.0628 214.506 65.0533 214.44 65.0311 214.377C64.6931 213.377 64.495 212.335 64.4424 211.281C64.4399 211.214 64.4238 211.148 64.3951 211.087C64.3664 211.027 64.3256 210.972 64.2754 210.928C64.2251 210.883 64.1663 210.849 64.1026 210.828C64.0388 210.807 63.9714 210.799 63.9044 210.804C63.8382 210.807 63.7732 210.823 63.7131 210.851C63.6531 210.879 63.5993 210.918 63.5548 210.968C63.5104 211.017 63.4762 211.074 63.4543 211.137C63.4325 211.2 63.4233 211.266 63.4274 211.332C63.487 212.479 63.7021 213.613 64.0668 214.702C64.1062 214.798 64.174 214.879 64.2611 214.936C64.3482 214.992 64.4504 215.02 64.5541 215.016V215.016Z" fill="#D1D3D4"/>
<path d="M70.035 217.879C70.1279 217.881 70.2195 217.856 70.2989 217.808C70.4124 217.738 70.4941 217.627 70.5264 217.498C70.5586 217.369 70.5389 217.232 70.4714 217.118C69.8621 216.097 69.3457 215.023 68.9286 213.91C68.9061 213.848 68.8713 213.79 68.8261 213.741C68.781 213.693 68.7266 213.653 68.666 213.626C68.6054 213.598 68.54 213.583 68.4735 213.582C68.4071 213.58 68.3409 213.592 68.279 213.616C68.1525 213.662 68.0494 213.756 67.9923 213.878C67.9352 214 67.9288 214.139 67.9745 214.266C68.4125 215.436 68.9561 216.564 69.5985 217.635C69.6433 217.711 69.7073 217.773 69.7839 217.816C69.8606 217.859 69.9472 217.88 70.035 217.879V217.879Z" fill="#D1D3D4"/>
<path d="M296.776 80.9351L295.06 87.7863L288.199 89.5017L295.06 91.2272L296.776 98.0784L298.501 91.2272L305.353 89.5017L298.501 87.7863L296.776 80.9351Z" fill="#D1D3D4"/>
<path d="M126.55 225.248L125.19 230.658L119.78 232.018L125.19 233.368L126.55 238.778L127.9 233.368L133.31 232.018L127.9 230.658L126.55 225.248Z" fill="#D1D3D4"/>
<path d="M99.8355 68.826L99.1656 71.526L96.4555 72.206L99.1656 72.886L99.8355 75.586L100.516 72.886L103.226 72.206L100.516 71.526L99.8355 68.826Z" fill="#D1D3D4"/>
<path d="M325.906 207.242L325.236 209.952L322.526 210.632L325.236 211.302L325.906 214.012L326.586 211.302L329.296 210.632L326.586 209.952L325.906 207.242Z" fill="#D1D3D4"/>
<path d="M337.457 61.7109L336.777 64.421L334.077 65.101L336.777 65.7709L337.457 68.481L338.137 65.7709L340.837 65.101L338.137 64.421L337.457 61.7109Z" fill="#D1D3D4"/>
<path d="M268.945 68.6332L268.153 71.8L264.996 72.5917L268.153 73.3834L268.945 76.5502L269.746 73.3834L272.903 72.5917L269.746 71.8L268.945 68.6332Z" fill="#D1D3D4"/>
<path d="M115.832 165.586L115.03 168.743L111.873 169.544L115.03 170.336L115.832 173.493L116.623 170.336L119.78 169.544L116.623 168.743L115.832 165.586Z" fill="#D1D3D4"/>
<path d="M288.199 234.921C281.668 234.921 276.374 229.627 276.374 223.096C276.374 216.565 281.668 211.271 288.199 211.271C294.73 211.271 300.024 216.565 300.024 223.096C300.024 229.627 294.73 234.921 288.199 234.921Z" fill="white"/>
<path d="M288.199 235.428C290.639 235.43 293.024 234.709 295.053 233.355C297.083 232.001 298.665 230.076 299.6 227.822C300.535 225.569 300.78 223.089 300.306 220.696C299.831 218.303 298.657 216.105 296.933 214.379C295.209 212.654 293.011 211.478 290.619 211.001C288.226 210.525 285.746 210.768 283.492 211.701C281.238 212.635 279.312 214.215 277.956 216.243C276.601 218.272 275.877 220.656 275.877 223.096C275.88 226.364 277.178 229.498 279.488 231.81C281.798 234.121 284.931 235.423 288.199 235.428V235.428ZM288.199 211.789C290.438 211.787 292.628 212.449 294.49 213.692C296.353 214.935 297.805 216.702 298.663 218.77C299.521 220.839 299.746 223.115 299.31 225.311C298.873 227.508 297.795 229.525 296.212 231.109C294.628 232.692 292.611 233.77 290.415 234.206C288.218 234.643 285.942 234.418 283.874 233.56C281.805 232.702 280.038 231.25 278.795 229.387C277.552 227.525 276.89 225.335 276.892 223.096C276.897 220.099 278.09 217.226 280.21 215.107C282.329 212.987 285.202 211.794 288.199 211.789V211.789Z" fill="#D1D3D4"/>
</svg>
