<svg width="295" height="195" viewBox="0 0 295 195" fill="none" xmlns="http://www.w3.org/2000/svg">
<path opacity="0.45" d="M147.5 194.146C228.962 194.146 295 189.542 295 183.863C295 178.184 228.962 173.581 147.5 173.581C66.038 173.581 0 178.184 0 183.863C0 189.542 66.038 194.146 147.5 194.146Z" fill="#E6E6E6"/>
<path d="M253.468 0H42.0562V137.367H253.468V0Z" fill="#24285B"/>
<path d="M131.787 121.672L123.757 172.683H177.311L165 121.672H131.787Z" fill="#C9C9C9"/>
<path d="M253.468 105.986H42.0562V137.367H253.468V105.986Z" fill="#E6E6E6"/>
<path d="M148.94 128.29C153.628 128.29 157.428 124.49 157.428 119.802C157.428 115.115 153.628 111.314 148.94 111.314C144.252 111.314 140.452 115.115 140.452 119.802C140.452 124.49 144.252 128.29 148.94 128.29Z" fill="#A5A5A5"/>
<path d="M186.863 163.747H111.538V180.143H186.863V163.747Z" fill="#E6E6E6"/>
<path d="M59.2472 17.4059C61.2916 17.4059 62.9489 15.7485 62.9489 13.7041C62.9489 11.6597 61.2916 10.0024 59.2472 10.0024C57.2027 10.0024 55.5454 11.6597 55.5454 13.7041C55.5454 15.7485 57.2027 17.4059 59.2472 17.4059Z" fill="white"/>
<path d="M70.2491 17.4059C72.2935 17.4059 73.9509 15.7485 73.9509 13.7041C73.9509 11.6597 72.2935 10.0024 70.2491 10.0024C68.2047 10.0024 66.5474 11.6597 66.5474 13.7041C66.5474 15.7485 68.2047 17.4059 70.2491 17.4059Z" fill="#442EBA"/>
<path d="M80.6256 17.4059C82.67 17.4059 84.3273 15.7485 84.3273 13.7041C84.3273 11.6597 82.67 10.0024 80.6256 10.0024C78.5812 10.0024 76.9238 11.6597 76.9238 13.7041C76.9238 15.7485 78.5812 17.4059 80.6256 17.4059Z" fill="#FFD200"/>
<path d="M40.8132 137.75H32.8862V182.601H40.8132V137.75Z" fill="#442EBA"/>
<path d="M83.636 137.75H75.709V182.601H83.636V137.75Z" fill="#442EBA"/>
<path opacity="0.08" d="M40.8132 137.75H32.8862V182.601H40.8132V137.75Z" fill="black"/>
<path opacity="0.08" d="M83.636 137.75H75.709V182.601H83.636V137.75Z" fill="black"/>
<path d="M93.0392 116.633H23.5098V141.162H93.0392V116.633Z" fill="#442EBA"/>
<path d="M27.0337 116.633L35.3439 141.153H46.8418L37.3911 116.633H27.0337Z" fill="#24285B"/>
<path d="M48.3193 116.633L56.6296 141.153H68.1181L58.6768 116.633H48.3193Z" fill="#24285B"/>
<path d="M69.5298 116.633L77.84 141.153H89.3379L79.8872 116.633H69.5298Z" fill="#24285B"/>
<path d="M93.0392 150.445H23.5098V161.942H93.0392V150.445Z" fill="#442EBA"/>
<path opacity="0.46" d="M93.0392 150.445H23.5098V161.942H93.0392V150.445Z" fill="white"/>
<path d="M147.865 27.9222L108.931 87.5522H147.865H186.789L147.865 27.9222Z" fill="#FFD200"/>
<path d="M150.314 50.1046H144.78V68.0338H150.314V50.1046Z" fill="#24285B"/>
<path d="M150.314 71.5299H144.78V77.0639H150.314V71.5299Z" fill="#24285B"/>
<path d="M225.041 180.143L236.482 127.795C236.602 127.281 236.892 126.822 237.305 126.494C237.719 126.166 238.231 125.987 238.759 125.987C239.286 125.987 239.799 126.166 240.212 126.494C240.625 126.822 240.915 127.281 241.035 127.795L253.467 181.078L225.041 180.143Z" fill="#442EBA"/>
<path d="M252.831 175.086H225.367C223.085 175.086 221.235 176.936 221.235 179.217V179.732C221.235 182.013 223.085 183.863 225.367 183.863H252.831C255.113 183.863 256.963 182.013 256.963 179.732V179.217C256.963 176.936 255.113 175.086 252.831 175.086Z" fill="#442EBA"/>
<path opacity="0.46" d="M252.831 175.086H225.367C223.085 175.086 221.235 176.936 221.235 179.217V179.732C221.235 182.013 223.085 183.863 225.367 183.863H252.831C255.113 183.863 256.963 182.013 256.963 179.732V179.217C256.963 176.936 255.113 175.086 252.831 175.086Z" fill="white"/>
<path opacity="0.08" d="M232.239 147.182L244.438 142.293L248 157.549L228.818 162.849L232.239 147.182Z" fill="black"/>
<path d="M227.219 184.714C227.219 184.714 232.416 177.236 224.667 175.179C216.917 173.123 226.536 163.027 219.32 161.737C212.103 160.447 213.309 171.085 213.309 171.085C213.309 171.085 208.327 166.794 204.896 170.402C201.465 174.011 206.27 177.965 206.27 177.965C206.27 177.965 199.334 180.358 203.662 184.742L227.219 184.714Z" fill="#E6E6E6"/>
<path d="M216.805 185.705C216.805 185.705 220.105 180.096 224.966 180.76C229.827 181.423 229.313 185.705 229.313 185.705H216.805Z" fill="#C9C9C9"/>
</svg>
