<svg width="193" height="150" viewBox="0 0 193 150" fill="none" xmlns="http://www.w3.org/2000/svg">
<g clip-path="url(#clip0)">
<path d="M192.284 71.0711L170.213 49L149 70.2132L171.071 92.2843L192.284 71.0711Z" fill="#2B1890"/>
<path d="M42.4264 75.2132L21.2132 54L-7.27177e-06 75.2132L21.2132 96.4264L42.4264 75.2132Z" fill="#442EBA"/>
<mask id="mask0" mask-type="alpha" maskUnits="userSpaceOnUse" x="21" y="0" width="150" height="150">
<path d="M159 0H33C26.3726 0 21 5.37258 21 12V138C21 144.627 26.3726 150 33 150H159C165.627 150 171 144.627 171 138V12C171 5.37258 165.627 0 159 0Z" fill="#C4C4C4"/>
</mask>
<g mask="url(#mask0)">
<path d="M171 0H21V150H171V0Z" fill="#442EBA"/>
<path d="M171 0L21 150H171V0Z" fill="#2B1891"/>
<path d="M90.1562 96.7031H120.016V108H76.0938V39.75H90.1562V96.7031Z" fill="white"/>
</g>
</g>
<defs>
<clipPath id="clip0">
<rect width="193" height="150" fill="white"/>
</clipPath>
</defs>
</svg>
