<svg width="51" height="55" viewBox="0 0 51 55" fill="none" xmlns="http://www.w3.org/2000/svg">
<g clip-path="url(#clip0)">
<path d="M2.29169 6.87508V11.4584H52.7084V6.87508C52.7084 5.65951 52.2255 4.49372 51.3659 3.63418C50.5064 2.77463 49.3406 2.29175 48.125 2.29175H6.87502C5.65944 2.29175 4.49366 2.77463 3.63411 3.63418C2.77457 4.49372 2.29169 5.65951 2.29169 6.87508V6.87508ZM9.16669 9.16675C8.71344 9.16675 8.27037 9.03234 7.89351 8.78053C7.51664 8.52872 7.22291 8.17081 7.04946 7.75206C6.87601 7.33332 6.83063 6.87254 6.91905 6.428C7.00748 5.98346 7.22574 5.57512 7.54623 5.25463C7.86673 4.93413 8.27506 4.71587 8.7196 4.62745C9.16414 4.53902 9.62492 4.58441 10.0437 4.75786C10.4624 4.93131 10.8203 5.22504 11.0721 5.6019C11.3239 5.97876 11.4584 6.42183 11.4584 6.87508C11.4584 7.48287 11.2169 8.06576 10.7871 8.49553C10.3574 8.9253 9.77447 9.16675 9.16669 9.16675ZM16.0417 9.16675C15.5884 9.16675 15.1454 9.03234 14.7685 8.78053C14.3916 8.52872 14.0979 8.17081 13.9245 7.75206C13.751 7.33332 13.7056 6.87254 13.7941 6.428C13.8825 5.98346 14.1007 5.57512 14.4212 5.25463C14.7417 4.93413 15.1501 4.71587 15.5946 4.62745C16.0391 4.53902 16.4999 4.58441 16.9187 4.75786C17.3374 4.93131 17.6953 5.22504 17.9471 5.6019C18.1989 5.97876 18.3334 6.42183 18.3334 6.87508C18.3315 7.48231 18.0895 8.06415 17.6601 8.49353C17.2308 8.92291 16.6489 9.16493 16.0417 9.16675V9.16675Z" fill="#EB5757"/>
<path d="M2.29169 13.4585V45.5418C2.29169 46.7574 2.77457 47.9232 3.63411 48.7827C4.49366 49.6423 5.65944 50.1252 6.87502 50.1252H48.125C49.3406 50.1252 50.5064 49.6423 51.3659 48.7827C52.2255 47.9232 52.7084 46.7574 52.7084 45.5418V13.4585H2.29169ZM27.5 43.2502C24.4611 43.2502 21.5466 42.043 19.3978 39.8941C17.2489 37.7452 16.0417 34.8308 16.0417 31.7918C16.0417 28.7529 17.2489 25.8384 19.3978 23.6896C21.5466 21.5407 24.4611 20.3335 27.5 20.3335V31.7918H38.9584C38.9584 34.8308 37.7511 37.7452 35.6023 39.8941C33.4534 42.043 30.539 43.2502 27.5 43.2502V43.2502Z" fill="#EB5757"/>
</g>
<defs>
<clipPath id="clip0">
<rect width="50.4167" height="55" fill="white"/>
</clipPath>
</defs>
</svg>
