<svg width="20" height="18" viewBox="0 0 20 18" fill="none" xmlns="http://www.w3.org/2000/svg">
<path d="M5.92027 0H13.7083C16.6751 0 19.0857 2.34 19.0857 5.22V12.78C19.0857 14.1644 18.5192 15.4922 17.5107 16.4711C16.5022 17.45 15.1345 18 13.7083 18H5.92027C2.95342 18 0.542847 15.66 0.542847 12.78V5.22C0.542847 3.83557 1.1094 2.50784 2.11786 1.5289C3.12632 0.549963 4.49409 0 5.92027 0V0ZM5.73485 1.8C4.84963 1.8 4.00067 2.14136 3.37473 2.74897C2.74878 3.35659 2.39713 4.1807 2.39713 5.04V12.96C2.39713 14.751 3.88983 16.2 5.73485 16.2H13.8937C14.7789 16.2 15.6279 15.8586 16.2538 15.251C16.8798 14.6434 17.2314 13.8193 17.2314 12.96V5.04C17.2314 3.249 15.7387 1.8 13.8937 1.8H5.73485ZM14.6818 3.15C14.9891 3.15 15.2839 3.26853 15.5013 3.4795C15.7186 3.69048 15.8407 3.97663 15.8407 4.275C15.8407 4.57337 15.7186 4.85952 15.5013 5.07049C15.2839 5.28147 14.9891 5.4 14.6818 5.4C14.3744 5.4 14.0796 5.28147 13.8623 5.07049C13.6449 4.85952 13.5228 4.57337 13.5228 4.275C13.5228 3.97663 13.6449 3.69048 13.8623 3.4795C14.0796 3.26853 14.3744 3.15 14.6818 3.15ZM9.81427 4.5C11.0437 4.5 12.2229 4.97411 13.0922 5.81802C13.9616 6.66193 14.45 7.80653 14.45 9C14.45 10.1935 13.9616 11.3381 13.0922 12.182C12.2229 13.0259 11.0437 13.5 9.81427 13.5C8.58481 13.5 7.40569 13.0259 6.53633 12.182C5.66696 11.3381 5.17856 10.1935 5.17856 9C5.17856 7.80653 5.66696 6.66193 6.53633 5.81802C7.40569 4.97411 8.58481 4.5 9.81427 4.5V4.5ZM9.81427 6.3C9.07659 6.3 8.36913 6.58446 7.84751 7.09081C7.32589 7.59716 7.03285 8.28392 7.03285 9C7.03285 9.71608 7.32589 10.4028 7.84751 10.9092C8.36913 11.4155 9.07659 11.7 9.81427 11.7C10.552 11.7 11.2594 11.4155 11.781 10.9092C12.3027 10.4028 12.5957 9.71608 12.5957 9C12.5957 8.28392 12.3027 7.59716 11.781 7.09081C11.2594 6.58446 10.552 6.3 9.81427 6.3Z" fill="#F6FAFE"/>
</svg>
