<svg width="25" height="18" viewBox="0 0 25 18" fill="none" xmlns="http://www.w3.org/2000/svg">
<path d="M24.0714 2.11765C23.2028 2.48824 22.2665 2.73176 21.2963 2.84824C22.289 2.28706 23.0561 1.39765 23.4171 0.328235C22.4808 0.857647 21.4429 1.22824 20.3487 1.44C19.4575 0.529412 18.2053 0 16.7839 0C14.1328 0 11.9668 2.03294 11.9668 4.54235C11.9668 4.90235 12.012 5.25177 12.0909 5.58C8.07488 5.38941 4.49878 3.57882 2.11847 0.836471C1.70107 1.50353 1.46417 2.28706 1.46417 3.11294C1.46417 4.69059 2.31025 6.08824 3.61885 6.88235C2.8179 6.88235 2.07335 6.67059 1.41905 6.35294V6.38471C1.41905 8.58706 3.08864 10.4294 5.29973 10.8424C4.58985 11.0247 3.84458 11.0501 3.12249 10.9165C3.42889 11.8191 4.02896 12.6089 4.83836 13.1749C5.64775 13.7408 6.62576 14.0545 7.63492 14.0718C5.92429 15.3428 3.80386 16.0299 1.6221 16.02C1.23855 16.02 0.854992 15.9988 0.471436 15.9565C2.61484 17.2482 5.16436 18 7.89438 18C16.7839 18 21.6686 11.0753 21.6686 5.07176C21.6686 4.87059 21.6686 4.68 21.6573 4.47882C22.6049 3.84353 23.4171 3.03882 24.0714 2.11765V2.11765Z" fill="#F6FAFE"/>
</svg>
