<svg width="30" height="30" viewBox="0 0 30 30" fill="none" xmlns="http://www.w3.org/2000/svg">
<path d="M25 5H7.5C6.12125 5 5 6.12125 5 7.5V13.75H7.5V10L15.5 16C15.7165 16.1621 15.9796 16.2497 16.25 16.2497C16.5204 16.2497 16.7836 16.1621 17 16L25 10V21.25H15V23.75H25C26.3788 23.75 27.5 22.6287 27.5 21.25V7.5C27.5 6.12125 26.3788 5 25 5ZM16.25 13.4375L8.3325 7.5H24.1675L16.25 13.4375Z" fill="#041A2F"/>
<path d="M2.5 15H11.25V17.5H2.5V15ZM5 18.75H12.5V21.25H5V18.75ZM8.75 22.5H13.75V25H8.75V22.5Z" fill="#041A2F"/>
</svg>
