<svg width="20" height="18" viewBox="0 0 20 18" fill="none" xmlns="http://www.w3.org/2000/svg">
<path d="M17.3174 0C17.8887 0 18.4366 0.210714 18.8405 0.585786C19.2445 0.960859 19.4714 1.46957 19.4714 2V16C19.4714 16.5304 19.2445 17.0391 18.8405 17.4142C18.4366 17.7893 17.8887 18 17.3174 18H2.23966C1.66839 18 1.12052 17.7893 0.716576 17.4142C0.312629 17.0391 0.0856934 16.5304 0.0856934 16V2C0.0856934 1.46957 0.312629 0.960859 0.716576 0.585786C1.12052 0.210714 1.66839 0 2.23966 0H17.3174ZM16.7789 15.5V10.2C16.7789 9.33539 16.409 8.5062 15.7506 7.89483C15.0922 7.28346 14.1991 6.94 13.268 6.94C12.3525 6.94 11.2863 7.46 10.7694 8.24V7.13H7.76459V15.5H10.7694V10.57C10.7694 9.8 11.4371 9.17 12.2664 9.17C12.6663 9.17 13.0498 9.3175 13.3325 9.58005C13.6153 9.8426 13.7742 10.1987 13.7742 10.57V15.5H16.7789ZM4.26439 5.56C4.74426 5.56 5.20447 5.383 5.54378 5.06794C5.8831 4.75288 6.07372 4.32556 6.07372 3.88C6.07372 2.95 5.26599 2.19 4.26439 2.19C3.78167 2.19 3.31872 2.36805 2.97738 2.68499C2.63605 3.00193 2.44429 3.43178 2.44429 3.88C2.44429 4.81 3.2628 5.56 4.26439 5.56V5.56ZM5.7614 15.5V7.13H2.77815V15.5H5.7614V15.5Z" fill="#F6FAFE"/>
</svg>
