<svg width="55" height="55" viewBox="0 0 55 55" fill="none" xmlns="http://www.w3.org/2000/svg">
<path d="M30.9375 3.4375C30.9375 2.52582 30.5753 1.65148 29.9307 1.00682C29.286 0.362164 28.4117 0 27.5 0C26.5883 0 25.714 0.362164 25.0693 1.00682C24.4247 1.65148 24.0625 2.52582 24.0625 3.4375V6.875C24.0625 7.78668 24.4247 8.66102 25.0693 9.30568C25.714 9.95034 26.5883 10.3125 27.5 10.3125C28.4117 10.3125 29.286 9.95034 29.9307 9.30568C30.5753 8.66102 30.9375 7.78668 30.9375 6.875V3.4375Z" fill="#27AE60"/>
<path d="M46.9458 12.9144C47.572 12.2661 47.9184 11.3978 47.9106 10.4965C47.9028 9.5952 47.5413 8.73303 46.9039 8.09569C46.2666 7.45835 45.4044 7.09683 44.5031 7.089C43.6018 7.08117 42.7335 7.42765 42.0852 8.05381L39.6549 10.4841C39.0287 11.1324 38.6822 12.0008 38.69 12.9021C38.6979 13.8034 39.0594 14.6655 39.6967 15.3029C40.3341 15.9402 41.1962 16.3017 42.0975 16.3096C42.9988 16.3174 43.8672 15.9709 44.5155 15.3448L46.9458 12.9144Z" fill="#27AE60"/>
<path d="M55 27.5C55 28.4117 54.6378 29.286 53.9932 29.9307C53.3485 30.5753 52.4742 30.9375 51.5625 30.9375H48.125C47.2133 30.9375 46.339 30.5753 45.6943 29.9307C45.0497 29.286 44.6875 28.4117 44.6875 27.5C44.6875 26.5883 45.0497 25.714 45.6943 25.0693C46.339 24.4247 47.2133 24.0625 48.125 24.0625H51.5625C52.4742 24.0625 53.3485 24.4247 53.9932 25.0693C54.6378 25.714 55 26.5883 55 27.5Z" fill="#27AE60"/>
<path d="M10.4842 15.3448C10.8013 15.6731 11.1807 15.9349 11.6 16.1151C12.0194 16.2953 12.4705 16.3901 12.9269 16.394C13.3834 16.398 13.836 16.311 14.2585 16.1382C14.6809 15.9654 15.0647 15.7101 15.3875 15.3874C15.7102 15.0646 15.9655 14.6808 16.1383 14.2583C16.3112 13.8359 16.3981 13.3832 16.3942 12.9268C16.3902 12.4704 16.2954 12.0193 16.1152 11.5999C15.9351 11.1805 15.6732 10.8012 15.3449 10.4841L12.9146 8.05381C12.2662 7.42765 11.3979 7.08117 10.4966 7.089C9.59532 7.09683 8.73315 7.45835 8.09581 8.09569C7.45847 8.73303 7.09695 9.5952 7.08912 10.4965C7.08129 11.3978 7.42777 12.2661 8.05394 12.9144L10.4842 15.3448V15.3448Z" fill="#27AE60"/>
<path d="M10.3125 27.5C10.3125 28.4117 9.95034 29.286 9.30568 29.9307C8.66102 30.5753 7.78668 30.9375 6.875 30.9375H3.4375C2.52582 30.9375 1.65148 30.5753 1.00682 29.9307C0.362164 29.286 0 28.4117 0 27.5C0 26.5883 0.362164 25.714 1.00682 25.0693C1.65148 24.4247 2.52582 24.0625 3.4375 24.0625H6.875C7.78668 24.0625 8.66102 24.4247 9.30568 25.0693C9.95034 25.714 10.3125 26.5883 10.3125 27.5Z" fill="#27AE60"/>
<path d="M20.625 48.125V44.6875H34.375V48.125C34.375 49.9484 33.6507 51.697 32.3614 52.9864C31.072 54.2757 29.3234 55 27.5 55C25.6766 55 23.928 54.2757 22.6386 52.9864C21.3493 51.697 20.625 49.9484 20.625 48.125V48.125Z" fill="#27AE60"/>
<path d="M34.375 41.2502C34.4266 40.0815 35.09 39.0296 36.0147 38.2974C38.2583 36.528 39.8949 34.1035 40.6971 31.3611C41.4992 28.6186 41.4271 25.6943 40.4906 22.9948C39.5542 20.2952 37.8 17.9544 35.4719 16.2978C33.1438 14.6412 30.3574 13.751 27.5 13.751C24.6426 13.751 21.8562 14.6412 19.5281 16.2978C17.2 17.9544 15.4458 20.2952 14.5094 22.9948C13.5729 25.6943 13.5008 28.6186 14.3029 31.3611C15.1051 34.1035 16.7417 36.528 18.9853 38.2974C19.9134 39.0296 20.5734 40.0815 20.6216 41.2502H34.3784H34.375Z" fill="#27AE60"/>
</svg>
