<?xml version="1.0" encoding="UTF-8" standalone="no"?>
<svg
   xmlns:dc="http://purl.org/dc/elements/1.1/"
   xmlns:cc="http://creativecommons.org/ns#"
   xmlns:rdf="http://www.w3.org/1999/02/22-rdf-syntax-ns#"
   xmlns:svg="http://www.w3.org/2000/svg"
   xmlns="http://www.w3.org/2000/svg"
   xmlns:sodipodi="http://sodipodi.sourceforge.net/DTD/sodipodi-0.dtd"
   xmlns:inkscape="http://www.inkscape.org/namespaces/inkscape"
   version="1.1"
   id="svg2"
   xml:space="preserve"
   width="2560"
   height="1440"
   viewBox="0 0 2560 1440"
   sodipodi:docname="LMdesigns-logomark.ai"><metadata
     id="metadata8"><rdf:RDF><cc:Work
         rdf:about=""><dc:format>image/svg+xml</dc:format><dc:type
           rdf:resource="http://purl.org/dc/dcmitype/StillImage" /></cc:Work></rdf:RDF></metadata><defs
     id="defs6"><clipPath
       clipPathUnits="userSpaceOnUse"
       id="clipPath18"><path
         d="M 0,1080 H 1920 V 0 H 0 Z"
         id="path16" /></clipPath><clipPath
       clipPathUnits="userSpaceOnUse"
       id="clipPath38"><path
         d="M 631.884,720.184 H 954.458 V 307.897 H 631.884 Z"
         id="path36" /></clipPath><clipPath
       clipPathUnits="userSpaceOnUse"
       id="clipPath58"><path
         d="M 965.542,772.175 H 1288.11 V 359.888 H 965.542 Z"
         id="path56" /></clipPath></defs><sodipodi:namedview
     pagecolor="#ffffff"
     bordercolor="#666666"
     borderopacity="1"
     objecttolerance="10"
     gridtolerance="10"
     guidetolerance="10"
     inkscape:pageopacity="0"
     inkscape:pageshadow="2"
     inkscape:window-width="640"
     inkscape:window-height="480"
     id="namedview4" /><g
     id="g10"
     inkscape:groupmode="layer"
     inkscape:label="LMdesigns-logomark"
     transform="matrix(1.3333333,0,0,-1.3333333,0,1440)"><g
       id="g12"><g
         id="g14"
         clip-path="url(#clipPath18)"><g
           id="g20"
           transform="translate(931.1426,502.2915)"><path
             d="M 0,0 -108.449,108.45 0,216.901 c 46.857,46.858 46.857,123.102 0,169.96 l -41.242,41.244 -193.431,-193.431 -0.028,0.028 -41.242,-41.244 c -22.708,-22.707 -35.206,-52.897 -35.2,-85.004 -0.006,-32.115 12.492,-62.304 35.2,-85.011 L -41.242,-211.204 0,-169.96 C 46.86,-123.102 46.86,-46.858 0,0"
             style="fill:#ffffff;fill-opacity:1;fill-rule:nonzero;stroke:none"
             id="path22" /></g><g
           id="g24"
           transform="translate(1264.8003,554.2832)"><path
             d="m 0,0 -234.701,234.7 -41.242,-41.242 c -46.857,-46.859 -46.857,-123.104 0,-169.961 L -167.459,-84.99 -275.943,-193.477 c -46.86,-46.858 -46.86,-123.101 0,-169.96 L -234.701,-404.68 0,-169.979 c 22.701,22.701 35.202,52.884 35.2,84.987 C 35.202,-52.886 22.701,-22.702 0,0"
             style="fill:#ffffff;fill-opacity:1;fill-rule:nonzero;stroke:none"
             id="path26" /></g><g
           id="g28"
           transform="translate(922.7388,727.5972)"><path
             d="m 0,0 -226.297,-226.297 -32.839,32.839 c -42.291,42.292 -42.291,110.86 0,153.151 L -32.839,185.99 0,153.151 C 42.292,110.86 42.292,42.292 0,0"
             style="fill:#093968;fill-opacity:1;fill-rule:nonzero;stroke:none"
             id="path30" /></g><g
           id="g32"><g
             id="g34" /><g
             id="g46"><g
               clip-path="url(#clipPath38)"
               opacity="0.800003"
               id="g44"><g
                 transform="translate(922.7388,493.8872)"
                 id="g42"><path
                   d="m 0,0 -226.297,226.297 -32.839,-32.839 c -42.291,-42.291 -42.291,-110.86 0,-153.151 L -32.839,-185.99 0,-153.151 C 42.292,-110.859 42.292,-42.292 0,0"
                   style="fill:#015ba7;fill-opacity:1;fill-rule:nonzero;stroke:none"
                   id="path40" /></g></g></g></g><g
           id="g48"
           transform="translate(997.2603,352.4019)"><path
             d="m 0,0 226.297,226.297 32.839,-32.839 c 42.292,-42.291 42.292,-110.86 0,-153.151 L 32.839,-185.99 0,-153.151 C -42.292,-110.86 -42.292,-42.292 0,0"
             style="fill:#009cea;fill-opacity:1;fill-rule:nonzero;stroke:none"
             id="path50" /></g><g
           id="g52"><g
             id="g54" /><g
             id="g66"><g
               clip-path="url(#clipPath58)"
               opacity="0.800003"
               id="g64"><g
                 transform="translate(997.2603,586.1846)"
                 id="g62"><path
                   d="m 0,0 226.297,-226.297 32.839,32.839 c 42.292,42.291 42.292,110.86 0,153.151 L 32.839,185.99 0,153.151 C -42.292,110.859 -42.292,42.292 0,0"
                   style="fill:#76e2ff;fill-opacity:1;fill-rule:nonzero;stroke:none"
                   id="path60" /></g></g></g></g></g></g></g></svg>
