<svg width="253" height="291" viewBox="0 0 253 291" fill="none" xmlns="http://www.w3.org/2000/svg">
<path d="M115.784 159.501L75.5106 119.234L115.784 78.9665C133.184 61.5683 133.184 33.2592 115.784 15.861L100.468 0.547242L28.6368 72.3675L28.6264 72.3571L13.311 87.6708C4.87834 96.1018 0.237153 107.311 0.239381 119.232C0.237153 131.157 4.87834 142.366 13.311 150.797L100.468 237.92L115.784 222.607C133.185 205.208 133.185 176.899 115.784 159.501Z" fill="white"/>
<path d="M239.689 140.197L152.532 53.0535L137.216 68.3665C119.816 85.7651 119.816 114.075 137.216 131.472L177.502 171.753L137.216 212.034C119.815 229.432 119.815 257.741 137.216 275.14L152.532 290.453L239.689 203.309C248.119 194.881 252.761 183.674 252.761 171.754C252.761 159.833 248.119 148.626 239.689 140.197Z" fill="white"/>
<path d="M112.663 75.8459L28.6266 159.869L16.4317 147.676C0.726719 131.973 0.726719 106.514 16.4317 90.8117L100.468 6.78851L112.663 18.9815C128.368 34.684 128.368 60.143 112.663 75.8459Z" fill="#093968"/>
<g opacity="0.800003">
<g opacity="0.800003">
<path opacity="0.800003" d="M112.663 162.622L28.6266 78.5983L16.4317 90.7913C0.726719 106.494 0.726719 131.953 16.4317 147.656L100.468 231.679L112.663 219.486C128.368 203.783 128.368 178.324 112.663 162.622Z" fill="#015BA7"/>
</g>
</g>
<path d="M140.337 215.155L224.373 131.131L236.568 143.324C252.273 159.027 252.273 184.486 236.568 200.189L152.532 284.212L140.337 272.019C124.631 256.316 124.631 230.857 140.337 215.155Z" fill="#009CEA"/>
<g opacity="0.800003">
<g opacity="0.800003">
<path opacity="0.800003" d="M140.337 128.352L224.373 212.375L236.568 200.182C252.273 184.48 252.273 159.02 236.568 143.318L152.532 59.2945L140.337 71.4875C124.631 87.1904 124.631 112.649 140.337 128.352Z" fill="#76E2FF"/>
</g>
</g>
</svg>
